<svg width="90" height="90" viewBox="0 0 90 90" fill="none" xmlns="http://www.w3.org/2000/svg">
<circle cx="45" cy="45" r="44" stroke="#2ADACC" stroke-width="2"/>
<path d="M66.6217 41.2339L59.016 37.0851V31.7099C59.016 31.3094 58.6917 30.9841 58.2902 30.9841H53.2096V28.0809C53.2096 27.8152 53.0644 27.5706 52.8315 27.4435L44.8476 23.0887C44.6321 22.9704 44.3687 22.9704 44.1529 23.0887L36.169 27.4435C35.9354 27.5705 35.7903 27.8152 35.7903 28.0809V30.9841H30.7096C30.3082 30.9841 29.9838 31.3094 29.9838 31.7099V37.0851L22.3781 41.2339C22.1452 41.3609 22 41.6055 22 41.8712V49.1293C22 49.395 22.1452 49.6396 22.3781 49.7666L30.362 54.1215C30.4702 54.1801 30.5898 54.2099 30.7097 54.2099C30.8296 54.2099 30.9491 54.1801 31.0573 54.1215L39.0412 49.7666C39.2742 49.6396 39.4193 49.395 39.4193 49.1293V41.8712C39.4193 41.6055 39.2742 41.3609 39.0412 41.2339L31.4355 37.0851V32.4357H35.7903V35.3389C35.7903 35.6046 35.9355 35.8493 36.1685 35.9763L44.1523 40.3311C44.2606 40.3898 44.3801 40.4196 44.5 40.4196C44.6199 40.4196 44.7394 40.3898 44.8477 40.3311L52.8315 35.9763C53.0645 35.8493 53.2097 35.6046 53.2097 35.3389V32.4357H57.5645V37.0851L49.9588 41.2339C49.7258 41.3609 49.5807 41.6055 49.5807 41.8712V49.1293C49.5807 49.395 49.7258 49.6396 49.9588 49.7666L57.9427 54.1215C58.0509 54.1801 58.1704 54.2099 58.2903 54.2099C58.4102 54.2099 58.5298 54.1801 58.638 54.1215L66.6219 49.7666C66.8548 49.6396 67 49.395 67 49.1293V41.8712C67 41.6055 66.8548 41.3609 66.6219 41.2339H66.6217ZM23.4517 43.0934L29.9839 46.6564V52.2609L23.4517 48.698V43.0934ZM31.4355 52.261V46.6564L37.9678 43.0935V48.6981L31.4355 52.261ZM37.1781 41.8708L30.7097 45.399L24.2413 41.8708L29.9839 38.7388V40.4192H31.4355V38.7388L37.1781 41.8708ZM44.5 24.5518L50.9684 28.0801L44.5 31.6083L38.0316 28.0801L44.5 24.5518ZM37.242 32.4349H38.6936V30.9833H37.242V29.3022L43.7742 32.8651V38.4697L37.242 34.9068V32.4349ZM51.7581 34.9069L45.2258 38.4698V32.8652L51.7581 29.3023V30.9834H50.3065V32.435H51.7581V34.9069ZM57.5645 38.7384V40.4187H59.0161V38.7384L64.7587 41.8704L58.2903 45.3986L51.8219 41.8704L57.5645 38.7384ZM51.0323 43.0925L57.5645 46.6554V52.26L51.0323 48.6971V43.0925ZM59.0161 52.2601V46.6555L65.5484 43.0926V48.6972L59.0161 52.2601Z" fill="#2ADACC"/>
<path d="M57.5645 58.5644H53.2097V55.6612C53.2097 55.3955 53.0645 55.1509 52.8315 55.0239L44.8477 50.669C44.6322 50.5508 44.3688 50.5508 44.153 50.669L36.1691 55.0239C35.9355 55.1509 35.7903 55.3955 35.7903 55.6612V58.5644H31.4355V55.6612H29.9839V59.2902C29.9839 59.6907 30.3082 60.016 30.7097 60.016H35.7903V62.9193C35.7903 63.185 35.9355 63.4296 36.1685 63.5566L44.1523 67.9114C44.2605 67.9701 44.3801 67.9999 44.5 67.9999C44.6199 67.9999 44.7394 67.9701 44.8477 67.9114L52.8315 63.5566C53.0645 63.4296 53.2097 63.185 53.2097 62.9193V60.016H58.2903C58.6918 60.016 59.0161 59.6907 59.0161 59.2902V55.6612H57.5645V58.5644ZM44.5 52.133L50.9684 55.6612L44.5 59.1894L38.0316 55.6612L44.5 52.133ZM37.2419 60.016H38.6936V58.5644H37.2419V56.8834L43.7742 60.4463V66.0508L37.2419 62.4879V60.016ZM51.758 62.488L45.2258 66.0509V60.4464L51.758 56.8835V58.5645H50.3064V60.0161H51.758V62.488Z" fill="#2ADACC"/>
</svg>
