<svg width="20" height="20" viewBox="0 0 20 20" fill="none" xmlns="http://www.w3.org/2000/svg">
<path d="M4.5 15.5L12 12L15.5 4.5L8 8L4.5 15.5ZM10 11C9.71667 11 9.479 10.904 9.287 10.712C9.095 10.52 8.99933 10.2827 9 10C9 9.71667 9.096 9.479 9.288 9.287C9.48 9.095 9.71733 8.99933 10 9C10.2833 9 10.521 9.096 10.713 9.288C10.905 9.48 11.0007 9.71733 11 10C11 10.2833 10.904 10.521 10.712 10.713C10.52 10.905 10.2827 11.0007 10 11ZM10 20C8.61667 20 7.31667 19.7373 6.1 19.212C4.88333 18.6867 3.825 17.9743 2.925 17.075C2.025 16.175 1.31267 15.1167 0.788 13.9C0.263333 12.6833 0.000666667 11.3833 0 10C0 8.61667 0.262667 7.31667 0.788 6.1C1.31333 4.88333 2.02567 3.825 2.925 2.925C3.825 2.025 4.88333 1.31267 6.1 0.788C7.31667 0.263333 8.61667 0.000666667 10 0C11.3833 0 12.6833 0.262667 13.9 0.788C15.1167 1.31333 16.175 2.02567 17.075 2.925C17.975 3.825 18.6877 4.88333 19.213 6.1C19.7383 7.31667 20.0007 8.61667 20 10C20 11.3833 19.7373 12.6833 19.212 13.9C18.6867 15.1167 17.9743 16.175 17.075 17.075C16.175 17.975 15.1167 18.6877 13.9 19.213C12.6833 19.7383 11.3833 20.0007 10 20Z" fill="#3ABFFF"/>
</svg>
