<svg width="90" height="90" viewBox="0 0 90 90" fill="none" xmlns="http://www.w3.org/2000/svg">
<circle cx="45" cy="45" r="44" stroke="#2ADACC" stroke-width="2"/>
<path d="M32.8329 34.4145L26.7269 40.5204C26.2044 41.0428 25.7898 41.6629 25.507 42.3456C25.2242 43.0282 25.0786 43.7598 25.0786 44.4987C25.0786 45.2375 25.2242 45.9692 25.507 46.6518C25.7898 47.3344 26.2044 47.9546 26.7269 48.477L32.8329 54.5829C33.3552 55.1055 33.9754 55.52 34.658 55.8028C35.3406 56.0856 36.0723 56.2312 36.8112 56.2312C37.55 56.2312 38.2817 56.0856 38.9643 55.8028C39.6469 55.52 40.2671 55.1055 40.7894 54.5829L46.8954 48.477C47.418 47.9546 47.8325 47.3344 48.1153 46.6518C48.3981 45.9692 48.5437 45.2375 48.5437 44.4987C48.5437 43.7598 48.3981 43.0282 48.1153 42.3456C47.8325 41.6629 47.418 41.0428 46.8954 40.5204L40.7894 34.4145C40.2671 33.8919 39.6469 33.4773 38.9643 33.1945C38.2817 32.9117 37.55 32.7661 36.8112 32.7661C36.0723 32.7661 35.3406 32.9117 34.658 33.1945C33.9754 33.4773 33.3552 33.8919 32.8329 34.4145ZM28.7154 42.5116L34.8241 36.4001C35.3516 35.8728 36.0668 35.5766 36.8126 35.5766C37.5583 35.5766 38.2736 35.8728 38.801 36.4001L44.9069 42.5088C45.4342 43.0362 45.7304 43.7515 45.7304 44.4973C45.7304 45.243 45.4342 45.9583 44.9069 46.4857L38.801 52.5916C38.2736 53.1189 37.5583 53.4151 36.8126 53.4151C36.0668 53.4151 35.3516 53.1189 34.8241 52.5916L28.7126 46.4885C28.1853 45.9611 27.8891 45.2459 27.8891 44.5001C27.8891 43.7543 28.1853 43.0391 28.7126 42.5116H28.7154ZM49.7079 54.5829L47.2385 52.1135L48.8866 50.4654C48.9991 50.3529 49.1116 50.2348 49.2157 50.1138L51.6991 52.5945C52.2266 53.1217 52.9418 53.4179 53.6876 53.4179C54.4333 53.4179 55.1486 53.1217 55.676 52.5945L61.7819 46.4885C62.3092 45.9611 62.6054 45.2459 62.6054 44.5001C62.6054 43.7543 62.3092 43.0391 61.7819 42.5116L55.676 36.4001C55.1486 35.8728 54.4333 35.5766 53.6876 35.5766C52.9418 35.5766 52.2266 35.8728 51.6991 36.4001L49.2157 38.8807C49.1093 38.7605 48.9996 38.6432 48.8866 38.5291L47.2385 36.8838L49.7079 34.4088C50.2302 33.8863 50.8504 33.4717 51.533 33.1889C52.2156 32.9061 52.9473 32.7605 53.6862 32.7605C54.425 32.7605 55.1567 32.9061 55.8393 33.1889C56.5219 33.4717 57.1421 33.8863 57.6644 34.4088L63.7704 40.5176C64.293 41.0399 64.7075 41.6601 64.9903 42.3427C65.2731 43.0253 65.4187 43.757 65.4187 44.4959C65.4187 45.2347 65.2731 45.9664 64.9903 46.649C64.7075 47.3316 64.293 47.9518 63.7704 48.4741L57.6644 54.5801C57.1421 55.1026 56.5219 55.5172 55.8393 55.8C55.1567 56.0828 54.425 56.2284 53.6862 56.2284C52.9473 56.2284 52.2156 56.0828 51.533 55.8C50.8504 55.5172 50.2302 55.1026 49.7079 54.5801V54.5829Z" fill="#2ADACC"/>
</svg>
