<svg width="90" height="90" viewBox="0 0 90 90" fill="none" xmlns="http://www.w3.org/2000/svg">
<circle cx="45" cy="45" r="44" stroke="#2ADACC" stroke-width="2"/>
<path d="M48.25 50.125V53.875C48.25 54.3723 48.0525 54.8492 47.7008 55.2008C47.3492 55.5525 46.8723 55.75 46.375 55.75H33.25L27.625 61.375V42.625C27.625 42.1277 27.8225 41.6508 28.1742 41.2992C28.5258 40.9475 29.0027 40.75 29.5 40.75H33.25M61.375 48.25L55.75 42.625H42.625C42.1277 42.625 41.6508 42.4275 41.2992 42.0758C40.9475 41.7242 40.75 41.2473 40.75 40.75V29.5C40.75 29.0027 40.9475 28.5258 41.2992 28.1742C41.6508 27.8225 42.1277 27.625 42.625 27.625H59.5C59.9973 27.625 60.4742 27.8225 60.8258 28.1742C61.1775 28.5258 61.375 29.0027 61.375 29.5V48.25Z" stroke="#2ADACC" stroke-width="2" stroke-linecap="round" stroke-linejoin="round"/>
</svg>
