<svg width="90" height="90" viewBox="0 0 90 90" fill="none" xmlns="http://www.w3.org/2000/svg">
<circle cx="45" cy="45" r="44" stroke="#2ADACC" stroke-width="2"/>
<path d="M25.75 63.25L63.2031 25.7969V43.6562C62.6094 43.375 62 43.1481 61.375 42.9756C60.75 42.8031 60.1094 42.6706 59.4531 42.5781V34.8438L34.7969 59.5H44.7812C44.9688 60.1875 45.2188 60.8438 45.5312 61.4688C45.8438 62.0938 46.1875 62.6875 46.5625 63.25H25.75ZM34.7969 59.5L59.4531 34.8438L47.125 47.1719L34.7969 59.5ZM55.75 65.125L55.1875 62.3125C54.8125 62.1562 54.4606 61.9919 54.1319 61.8194C53.8031 61.6469 53.4675 61.4362 53.125 61.1875L50.4062 62.0312L48.5312 58.8438L50.6875 56.9688C50.625 56.5938 50.5938 56.1875 50.5938 55.75C50.5938 55.3125 50.625 54.9063 50.6875 54.5313L48.5312 52.6563L50.4062 49.4688L53.125 50.3125C53.4688 50.0625 53.8044 49.8519 54.1319 49.6806C54.4594 49.5094 54.8113 49.345 55.1875 49.1875L55.75 46.375H59.5L60.0625 49.1875C60.4375 49.3438 60.7894 49.5081 61.1181 49.6806C61.4469 49.8531 61.7825 50.0638 62.125 50.3125L64.8438 49.4688L66.7188 52.6563L64.5625 54.5313C64.625 54.9063 64.6562 55.3125 64.6562 55.75C64.6562 56.1875 64.625 56.5938 64.5625 56.9688L66.7188 58.8438L64.8438 62.0312L62.125 61.1875C61.7812 61.4375 61.4456 61.6488 61.1181 61.8213C60.7906 61.9938 60.4387 62.1575 60.0625 62.3125L59.5 65.125H55.75ZM57.625 59.5C58.6562 59.5 59.5394 59.1325 60.2744 58.3975C61.0094 57.6625 61.3763 56.78 61.375 55.75C61.375 54.7188 61.0075 53.8356 60.2725 53.1006C59.5375 52.3656 58.655 51.9988 57.625 52C56.5938 52 55.7106 52.3675 54.9756 53.1025C54.2406 53.8375 53.8738 54.72 53.875 55.75C53.875 56.7812 54.2425 57.6644 54.9775 58.3994C55.7125 59.1344 56.595 59.5013 57.625 59.5Z" fill="#2ADACC"/>
</svg>
