<svg width="1699" height="1117" viewBox="0 0 1699 1117" fill="none" xmlns="http://www.w3.org/2000/svg">
<path d="M2251.09 -121.596C2248.71 -122.715 2245.96 -121.656 2244.38 -119.794L2128.72 -196.537C2128.72 -196.537 2128.98 -196.766 2128.75 -197.024C2130.15 -200.118 2128.41 -203.642 2125.32 -205.048C2123.17 -205.908 2120.93 -205.307 2119.15 -204.19L2012.45 -308.263C2012.97 -308.721 2013 -309.208 2013.02 -309.695C2014.43 -312.789 2012.69 -316.313 2009.59 -317.719C2006.5 -319.124 2002.97 -317.377 2001.57 -314.284C2001.28 -313.568 2001.22 -312.593 2001.16 -311.619L1896.86 -291.891C1896.23 -293.639 1895.08 -294.929 1893.42 -295.76C1890.33 -297.165 1886.8 -295.419 1885.39 -292.325C1885.11 -291.609 1885.08 -291.122 1884.79 -290.406L1812.3 -283.702C1811.93 -285.679 1810.55 -287.226 1808.4 -288.087C1806.97 -288.66 1805.51 -288.747 1804.25 -288.088L1757.1 -378.614C1757.88 -379.301 1758.91 -380.218 1759.22 -381.421C1760.63 -384.515 1758.89 -388.039 1755.79 -389.444C1753.16 -390.334 1750.18 -389.533 1748.83 -387.413L1681.9 -424.857C1683.31 -427.951 1681.56 -431.476 1678.47 -432.881C1675.37 -434.286 1671.85 -432.539 1670.44 -429.446C1669.61 -427.784 1669.98 -425.807 1670.64 -424.546L1593.12 -370.484C1592.43 -371.258 1591.72 -371.545 1590.77 -372.089C1587.68 -373.495 1584.15 -371.748 1582.75 -368.655C1581.34 -365.561 1583.09 -362.036 1586.18 -360.631C1586.18 -360.631 1586.41 -360.373 1586.67 -360.602L1551.65 -170.834L1551.16 -170.863L1551.59 -169.86L1551.16 -166.708L1552.48 -168.341L1604.37 -67.2699C1603.6 -66.5825 1602.56 -65.6661 1602.25 -64.4628C1601.13 -62.0853 1601.96 -59.5924 1603.56 -57.7868L1551.53 15.6244C1551.3 15.3664 1551.3 15.3665 1550.81 15.3377C1547.72 13.9326 1544.19 15.6789 1542.79 18.7726C1541.64 21.6372 1542.92 24.6461 1545.27 26.2514L1348.83 172.98C1348.38 172.465 1347.43 171.92 1346.71 171.633C1343.62 170.228 1340.1 171.974 1338.69 175.068C1337.28 178.162 1339.03 181.686 1342.12 183.092C1343.32 183.407 1344.53 183.723 1345.53 183.293L1417.58 372.559C1416.32 373.218 1415.29 374.134 1414.72 375.566C1414.14 376.999 1414.31 378.231 1414.48 379.463L1335.72 413.412C1335.06 412.151 1333.89 411.348 1332.69 411.032C1329.59 409.627 1326.07 411.374 1324.66 414.467C1323.8 416.616 1324.14 419.08 1325.74 420.886L1273.87 479.399C1273.64 479.141 1273.15 479.112 1272.69 478.596C1269.6 477.191 1266.07 478.937 1264.67 482.031C1263.26 485.125 1265.01 488.649 1268.1 490.054C1268.33 490.312 1268.59 490.083 1268.82 490.341L1251.94 629.863C1249.51 629.719 1247.21 631.294 1246.32 633.929C1244.92 637.023 1246.66 640.548 1249.76 641.953C1251.9 642.813 1253.88 642.442 1255.66 641.325L1311.86 698.906C1311.34 699.364 1311.05 700.08 1310.77 700.797C1309.62 703.661 1310.65 706.899 1313.48 708.533L1291.53 752.933C1290.01 753.821 1288.92 755.711 1288.8 757.66L1187.08 762.634C1186.88 761.889 1186.91 761.401 1186.46 760.886C1184.91 758.106 1181.07 756.901 1178.29 758.447C1176.03 759.535 1174.91 761.913 1175.25 764.377L1158.57 769.499L1066.92 798.285C1065.37 795.506 1061.76 794.559 1058.75 795.847C1055.97 797.393 1054.77 801.232 1056.31 804.011C1056.74 805.014 1057.2 805.53 1058.14 806.075L1012.52 890.863C1011.09 890.289 1009.14 890.174 1007.36 891.291L974.363 846.325L866.025 925.444C864.193 923.381 861.041 922.95 858.748 924.525C857.487 925.183 856.683 926.357 855.88 927.532L781.715 908.966C782.031 907.763 781.86 906.531 780.944 905.499C779.399 902.719 775.561 901.514 772.78 903.06C771.519 903.719 770.458 905.122 770.142 906.325L647.76 880.75C647.818 879.776 647.647 878.544 646.989 877.283C645.444 874.503 641.606 873.298 638.826 874.844C636.045 876.39 634.839 880.229 636.384 883.009C637.042 884.27 637.987 884.814 639.161 885.617L613.197 964.482C611.994 964.167 610.504 964.567 609.243 965.226C606.72 966.542 605.572 969.407 606.372 972.387L426.487 1054.6L426.687 1055.35C425.571 1053.57 423.938 1052.25 421.99 1052.14L418.814 974.233C419.559 974.033 420.046 974.062 420.562 973.604C423.343 972.058 424.549 968.219 423.004 965.439C421.459 962.659 417.621 961.455 414.84 963.001C413.063 964.117 412.002 965.521 411.886 967.469L243.672 964.595C243.472 963.85 243.272 963.105 242.814 962.59C241.727 960.326 239.35 959.207 236.885 959.55L223.216 889.58C223.475 889.351 223.475 889.351 223.962 889.38C226.742 887.834 227.948 883.995 226.403 881.215C224.858 878.436 221.02 877.231 218.24 878.777C216.72 879.664 215.659 881.068 215.314 882.758L12.7511 873.94C12.5512 873.195 12.6092 872.221 11.9222 871.447C10.3772 868.668 6.53878 867.463 3.75831 869.009C0.977847 870.555 -0.228576 874.394 1.31643 877.173C2.40342 879.437 5.26773 880.584 7.73207 880.242L47.4821 1012.85L47.2241 1013.08C44.4436 1014.63 43.2372 1018.47 44.7822 1021.25C45.8982 1023.02 48.0174 1024.37 49.9657 1024.49L65.3495 1172.27C64.8624 1172.24 64.3463 1172.7 63.8593 1172.67C61.0788 1174.22 59.8724 1178.06 61.4174 1180.84C62.9624 1183.62 66.8008 1184.82 69.5813 1183.28C70.5844 1182.85 71.1005 1182.39 71.6457 1181.44L164.151 1232.62C163.319 1234.28 163.461 1236 164.577 1237.78C166.122 1240.56 169.96 1241.76 172.741 1240.22C173.257 1239.76 174.002 1239.56 174.289 1238.84L233.91 1280.01C233.078 1281.67 233.191 1283.87 233.82 1285.62C234.478 1286.88 235.881 1287.94 237.084 1288.26L215 1388.13C214.026 1388.07 212.794 1388.24 211.533 1388.9C208.752 1390.45 207.546 1394.28 209.091 1397.06C210.407 1399.59 213.271 1400.73 215.764 1399.9L243.042 1471.17C240.262 1472.71 239.313 1476.32 240.829 1479.59C242.374 1482.37 246.213 1483.57 248.993 1482.03C250.512 1481.14 251.574 1479.74 251.919 1478.05L346.205 1487.05C346.147 1488.03 346.576 1489.03 346.776 1489.77C348.321 1492.55 352.16 1493.76 354.94 1492.21C357.721 1490.67 358.927 1486.83 357.382 1484.05L357.153 1483.79L505.009 1360.82L505.467 1361.34L505.525 1360.36L507.847 1358.3L505.87 1358.67L530.541 1248.21C531.515 1248.26 532.747 1248.09 534.008 1247.43C536.273 1246.35 537.392 1243.97 537.05 1241.5L623.97 1218.3C624.199 1218.56 624.199 1218.56 624.17 1219.05C625.715 1221.83 629.553 1223.03 632.334 1221.49C635.114 1219.94 636.034 1216.82 634.976 1214.07L879.11 1226.57C879.31 1227.31 879.252 1228.29 879.939 1229.06C881.484 1231.84 885.322 1233.05 888.102 1231.5C890.883 1229.95 892.089 1226.11 890.544 1223.33C889.886 1222.07 888.941 1221.53 887.996 1220.98L954.362 1030.14C955.565 1030.46 957.284 1030.31 958.546 1029.65C959.807 1029 960.61 1027.82 961.155 1026.88L1043.05 1051.03C1042.74 1052.24 1043.14 1053.73 1043.79 1054.99C1045.34 1057.77 1049.18 1058.97 1051.96 1057.42C1053.99 1056.08 1055.08 1054.19 1054.97 1051.98L1131.91 1040.41C1131.88 1040.9 1132.11 1041.15 1132.57 1041.67C1134.11 1044.45 1137.95 1045.65 1140.73 1044.11C1143.51 1042.56 1144.72 1038.72 1143.17 1035.94C1142.95 1035.69 1142.95 1035.69 1142.72 1035.43L1244.74 939.316C1246.6 940.893 1249.26 941.295 1251.3 939.949C1254.08 938.403 1255.28 934.564 1253.74 931.784C1252.62 930.008 1250.73 928.918 1248.78 928.803L1242.31 848.75C1243.06 848.55 1243.55 848.579 1244.32 847.892C1247.1 846.346 1248.02 843.223 1246.96 840.472L1324.01 806.666L1324.24 806.924C1325.78 809.703 1329.62 810.908 1332.4 809.362C1334.18 808.246 1335.27 806.355 1335.38 804.407C1335.47 802.946 1335.07 801.456 1334.41 800.195L1409.25 729.6C1409.71 730.116 1410.42 730.403 1410.91 730.432C1414 731.837 1417.53 730.091 1418.94 726.997C1419.8 724.848 1419.23 722.126 1417.62 720.321L1427.29 705.741L1479.53 624.766C1482.65 625.685 1486.15 624.425 1487.07 621.303C1488.47 618.209 1486.73 614.684 1483.64 613.279C1482.69 612.734 1481.72 612.677 1480.97 612.877L1461.94 518.15C1463.68 517.521 1464.97 516.375 1465.58 514.456L1520.01 527.943L1552.97 397.194C1555.64 397.597 1558.42 396.05 1559.31 393.415C1559.88 391.983 1559.97 390.521 1559.31 389.261L1628.5 355.967C1629.16 357.228 1630.11 357.773 1631.54 358.346C1634.63 359.751 1638.16 358.005 1639.56 354.911C1640.14 353.479 1640.23 352.018 1639.57 350.757L1750.61 291.837C1751.3 292.611 1752.22 293.643 1753.42 293.959C1756.51 295.364 1760.04 293.617 1761.44 290.524C1762.85 287.43 1761.11 283.905 1758.01 282.5C1756.81 282.185 1755.61 281.869 1754.12 282.269L1723.78 204.958C1725.04 204.3 1725.84 203.125 1726.64 201.951C1727.79 199.086 1726.73 196.335 1724.39 194.73L1810.34 15.5538L1809.63 15.267C1811.54 15.8695 1813.75 15.7557 1815.3 14.3812L1867.8 72.4766C1867.28 72.9348 1867 73.6508 1866.71 74.367C1865.3 77.4607 1867.05 80.9854 1870.14 82.3904C1873.24 83.7956 1876.76 82.0494 1878.17 78.9556C1878.77 77.0363 1878.63 75.317 1877.51 73.5403L2009.2 -32.3009C2009.65 -31.785 2010.37 -31.4982 2011.09 -31.2115C2013.23 -30.3511 2015.96 -30.923 2017.76 -32.5267L2073.23 12.7915C2072.97 13.0205 2073.2 13.2787 2072.94 13.5079C2071.53 16.6016 2073.28 20.1263 2076.37 21.5313C2079.46 22.9364 2082.99 21.19 2084.4 18.0963C2085.23 16.4349 2085.09 14.716 2084.2 13.1971L2245.98 -109.68C2246.44 -109.164 2247.38 -108.619 2248.1 -108.332C2251.19 -106.927 2254.72 -108.673 2256.12 -111.767C2255.7 -116.925 2254.44 -120.42 2251.09 -121.596ZM2010.13 -306.201C2010.87 -306.401 2011.39 -306.859 2011.65 -307.088L2118.35 -203.016C2117.84 -202.558 2117.81 -202.071 2117.78 -201.584C2117.49 -200.868 2117.43 -199.893 2117.37 -198.919L2037.71 -182.62L2010.13 -306.201ZM1805.27 -276.542C1805.99 -276.255 1807.19 -275.939 1807.94 -276.14L1820.55 -217.229L1795.53 -281.273L1801.41 -281.414C1801.52 -279.208 1803.12 -277.402 1805.27 -276.542ZM1900.45 -200.523C1900.19 -200.294 1900.16 -199.807 1900.13 -199.32L1829.28 -207.914C1829.37 -209.375 1828.48 -210.894 1827.57 -211.926L1852.84 -242.199L1900.74 -201.239C1900.74 -201.239 1900.71 -200.752 1900.45 -200.523ZM1911.65 -195.705L1973.5 -179.579L1907.78 -192.269C1909.27 -192.669 1910.82 -194.044 1911.65 -195.705ZM1902.22 -193.331L1844.73 -204.556L1899.79 -197.629C1900.19 -196.139 1900.82 -194.391 1902.22 -193.331ZM1826.42 -213.215C1826.19 -213.473 1825.71 -213.502 1825.48 -213.76C1824.53 -214.305 1823.56 -214.363 1822.81 -214.162L1809.43 -276.54C1810.17 -276.74 1810.69 -277.198 1811.46 -277.886L1851.69 -243.489L1826.42 -213.215ZM1820.32 -213.332C1819.32 -212.903 1818.29 -211.987 1817.97 -210.784L1639.43 -278.297L1638.98 -278.813L1639.01 -279.3L1793.56 -280.901L1820.32 -213.332ZM1817.4 -209.351C1817.37 -208.864 1817.34 -208.377 1817.31 -207.89L1690.94 -187.024L1637.31 -275.49C1637.83 -275.948 1638.6 -276.635 1638.89 -277.352L1817.4 -209.351ZM1736.81 -120.279C1736.64 -121.511 1736.21 -122.514 1735.53 -123.288L1819.48 -203.362C1819.94 -202.846 1820.43 -202.818 1821.14 -202.531C1821.14 -202.531 1821.37 -202.273 1821.63 -202.502L1806.61 -118.59L1736.81 -120.279ZM1865.31 -115.358C1865.51 -114.613 1865.71 -113.868 1865.91 -113.123L1802.56 -71.1749C1801.87 -71.9487 1800.93 -72.4932 1800.21 -72.78C1800.21 -72.78 1799.98 -73.038 1799.72 -72.8089L1807.47 -116.584L1865.31 -115.358ZM1610.76 -67.869L1652.53 -174.146C1653.74 -173.831 1654.97 -174.002 1655.97 -174.432L1692.24 -102.39L1613.08 -65.7766C1612.39 -66.5505 1611.7 -67.3243 1610.76 -67.869ZM1657.23 -175.09C1657.49 -175.319 1657.75 -175.548 1658.01 -175.777L1725.24 -122.919C1724.98 -122.69 1724.95 -122.203 1724.69 -121.974C1724.12 -120.542 1724.03 -119.081 1724.69 -117.82L1693.28 -103.306L1657.23 -175.09ZM1659.3 -176.923C1659.55 -177.152 1659.58 -177.639 1659.84 -177.868C1660.13 -178.585 1660.19 -179.559 1660.47 -180.275L1690.33 -185.105L1727.27 -124.265C1727.02 -124.036 1727.02 -124.036 1726.76 -123.807L1659.3 -176.923ZM1691.57 -185.277L1817.45 -206.171C1817.65 -205.426 1818.11 -204.91 1818.31 -204.165L1734.35 -124.091C1733.89 -124.607 1733.41 -124.635 1732.69 -124.922C1731.26 -125.496 1729.54 -125.353 1728.05 -124.953L1691.57 -185.277ZM1688.96 -186.653L1659.59 -181.794C1658.96 -183.542 1657.81 -184.831 1656.15 -185.663C1655.44 -185.949 1654.46 -186.007 1653.49 -186.065L1648.35 -210.563L1635.28 -274.144L1635.54 -274.373L1688.96 -186.653ZM1652 -185.665C1650.25 -185.035 1648.96 -183.889 1648.36 -181.97C1647.47 -179.334 1648.27 -176.354 1650.61 -174.749L1621.7 -173.528L1633.3 -273.772C1633.3 -273.772 1633.3 -273.773 1633.79 -273.744L1652 -185.665ZM1650.53 -173.288L1609.33 -68.4426L1621.39 -172.325L1650.53 -173.288ZM1613.48 -64.2866L1692.87 -100.642L1735.96 -15.7331C1735.18 -15.0459 1734.67 -14.5877 1734.12 -13.6424L1613.76 -60.8485C1613.85 -62.3096 1613.91 -63.2838 1613.48 -64.2866ZM1694.39 -101.53L1725.81 -116.043C1726.49 -115.269 1727.41 -114.238 1728.61 -113.922C1729.33 -113.635 1729.82 -113.606 1730.53 -113.319L1738.22 -16.821C1737.96 -16.5919 1737.73 -16.8499 1737.48 -16.6209L1694.39 -101.53ZM1732.28 -113.949C1732.54 -114.178 1733.03 -114.149 1733.28 -114.378L1775.69 -46.8607L1743.06 -16.0454C1742.6 -16.5613 1742.12 -16.5902 1741.4 -16.877C1740.69 -17.1637 1740.2 -17.1927 1739.48 -17.4795L1732.28 -113.949ZM1777.61 -46.2585L1794.44 -62.1243C1794.67 -61.8663 1795.16 -61.8376 1795.39 -61.5796C1796.1 -61.2928 1797.08 -61.2352 1798.05 -61.1775L1808.92 2.51718C1808.66 2.74638 1808.43 2.48841 1808.17 2.71744L1777.61 -46.2585ZM1793.53 -63.1561L1776.95 -47.5194L1734.55 -115.037C1734.8 -115.266 1735.06 -115.495 1735.58 -115.953L1792.73 -70.2905C1792.47 -70.0614 1792.47 -70.0611 1792.44 -69.5742C1791.32 -67.1966 1791.92 -64.9617 1793.53 -63.1561ZM1736.38 -117.128C1736.67 -117.844 1736.7 -118.331 1736.95 -118.56L1806.26 -116.9L1798.29 -73.3825C1796.34 -73.4978 1794.82 -72.6104 1793.53 -71.4648L1736.38 -117.128ZM1803.22 -69.9139L1866.57 -111.862C1867.26 -111.088 1868.2 -110.544 1868.92 -110.257C1869.41 -110.228 1869.64 -109.97 1870.35 -109.683L1870.45 -58.112L1803.79 -67.1918C1803.85 -68.1659 1803.9 -69.14 1803.22 -69.9139ZM1807.81 -118.274L1822.8 -201.699C1823.78 -201.642 1824.52 -201.842 1825.27 -202.042L1867.58 -120.6C1866.81 -119.913 1865.77 -118.997 1865.46 -117.794C1865.43 -117.306 1865.17 -117.077 1865.14 -116.59L1807.81 -118.274ZM1826.79 -202.93C1827.56 -203.617 1828.59 -204.533 1828.91 -205.737L1829.17 -205.966L1991.74 -174.1C1991.69 -173.126 1991.66 -172.639 1991.86 -171.894L1876.78 -119.078C1876.12 -120.339 1875.17 -120.884 1873.74 -121.458C1872.31 -122.031 1870.85 -122.118 1869.59 -121.459L1826.79 -202.93ZM1877.18 -117.588L1992.26 -170.404C1992.91 -169.143 1994.09 -168.34 1995.29 -168.025C1996.01 -167.738 1996.72 -167.451 1997.47 -167.651L2002.76 -121.149L1877.38 -116.843C1877.41 -117.33 1877.18 -117.588 1877.18 -117.588ZM2053.94 -126.917C2053.71 -127.175 2052.99 -127.461 2052.76 -127.719C2051.82 -128.264 2050.85 -128.322 2050.1 -128.122L2038.11 -181.13L2117.77 -197.429C2117.97 -196.685 2118.43 -196.169 2118.89 -195.653L2053.94 -126.917ZM2116.68 -191.385L2016.86 -46.0217L2048.66 -116.232C2051.78 -115.314 2055.05 -116.831 2056.2 -119.696C2057.06 -121.844 2056.46 -124.079 2055.34 -125.856L2116.68 -191.385ZM2048.61 -127.721C2047.86 -127.521 2047.35 -127.062 2047.09 -126.833L2003 -170.256C2003.26 -170.485 2003.55 -171.202 2003.8 -171.431C2004.09 -172.147 2004.15 -173.121 2004.21 -174.095L2037.11 -180.7L2048.61 -127.721ZM2045.8 -125.688C2045.28 -125.23 2045.26 -124.743 2044.97 -124.026C2044.68 -123.31 2044.65 -122.823 2044.62 -122.336L2004.22 -121.063L1998.93 -167.565C1999.68 -167.765 2000.68 -168.194 2001.45 -168.882L2045.8 -125.688ZM2004.39 -119.831L2044.57 -121.362C2044.71 -119.643 2045.85 -118.353 2047.25 -117.292L2014.33 -44.7046C2013.85 -44.7334 2013.13 -45.0202 2012.64 -45.0491L2004.39 -119.831ZM2016.65 -42.6123L2120.49 -193.847C2120.72 -193.589 2120.72 -193.589 2121.21 -193.56C2121.21 -193.56 2121.21 -193.56 2121.44 -193.302L2094.03 -65.6459L2018 -40.5775C2017.57 -41.5803 2017.11 -42.0964 2016.65 -42.6123ZM2008.15 -305.829C2008.41 -306.058 2008.41 -306.058 2008.15 -305.829L2036.22 -182.219L2003.32 -175.614C2002.69 -177.362 2001.55 -178.652 1999.63 -179.254C1999.4 -179.512 1998.91 -179.541 1998.42 -179.569L2008.15 -305.829ZM2006.69 -305.916L1997.19 -179.398C1995.96 -179.227 1994.96 -178.797 1993.95 -178.368L1941.19 -236.234L2004.28 -306.547C2004.51 -306.289 2005.23 -306.002 2005.46 -305.744C2005.97 -306.203 2006.46 -306.174 2006.69 -305.916ZM1897.57 -287.45C1897.86 -288.166 1897.91 -289.14 1897.97 -290.114L2002.05 -310.101C2002.25 -309.356 2002.71 -308.84 2003.4 -308.066L1940.31 -237.753L1896.51 -286.047C1896.77 -286.276 1897.05 -286.992 1897.57 -287.45ZM1992.92 -177.451C1992.4 -176.993 1992.38 -176.506 1991.86 -176.048L1911.97 -196.908C1912.31 -198.599 1911.94 -200.576 1910.57 -202.123L1940.16 -235.318L1992.92 -177.451ZM1893.7 -284.013C1894.44 -284.214 1894.96 -284.672 1895.45 -284.643L1939.47 -236.092L1909.62 -202.668C1909.39 -202.926 1908.68 -203.213 1908.45 -203.471C1907.73 -203.757 1906.76 -203.815 1906.27 -203.844L1893.7 -284.013ZM1891.98 -283.871L1904.32 -203.959C1903.32 -203.53 1902.57 -203.33 1901.8 -202.642L1853.9 -243.603L1888.37 -284.818C1888.6 -284.56 1889.08 -284.531 1889.31 -284.273C1890.52 -283.957 1891.23 -283.671 1891.98 -283.871ZM1812.81 -280.005C1813.1 -280.722 1813.13 -281.209 1813.18 -282.183L1885.68 -288.887C1886.11 -287.884 1886.54 -286.881 1887.22 -286.108L1852.75 -244.893L1812.52 -279.289C1812.52 -279.289 1812.78 -279.518 1812.81 -280.005ZM1803.7 -287.143C1802.93 -286.456 1801.9 -285.539 1801.58 -284.336C1801.55 -283.849 1801.27 -283.133 1801.24 -282.646L1794.88 -282.534L1760.73 -369.846L1803.7 -287.143ZM1793.19 -282.878L1639.35 -280.99C1639.15 -281.735 1638.72 -282.738 1638.52 -283.483L1750.77 -378.989C1751.23 -378.473 1751.94 -378.186 1752.66 -377.9C1753.86 -377.584 1755.07 -377.268 1756.56 -377.669L1793.19 -282.878ZM1635.72 -285.604L1662.2 -373.236L1748.77 -382.285C1748.97 -381.54 1749.17 -380.795 1749.63 -380.279L1637.38 -284.773C1636.66 -285.059 1636.43 -285.317 1635.72 -285.604ZM1682.3 -423.367L1749.23 -385.923C1748.94 -385.207 1748.91 -384.72 1748.85 -383.746L1662.78 -374.669L1676.51 -420.533C1678.72 -420.647 1680.72 -421.505 1682.3 -423.367ZM1594.27 -369.194L1672.99 -422.941C1673.44 -422.425 1674.39 -421.88 1675.11 -421.593L1661.09 -375.013L1594.69 -368.191C1594.47 -368.449 1594.49 -368.936 1594.27 -369.194ZM1594.46 -364.295C1594.75 -365.011 1594.78 -365.498 1594.84 -366.472L1660.48 -373.094L1634.6 -287.381L1592.37 -361.975C1593.37 -362.405 1593.92 -363.35 1594.46 -364.295ZM1588.61 -360.487C1589.59 -360.429 1590.33 -360.629 1591.08 -360.83L1633.31 -286.235C1630.87 -286.38 1628.58 -284.805 1627.46 -282.427C1626.34 -280.05 1627.17 -277.557 1628.77 -275.751L1553.51 -173.412L1588.61 -360.487ZM1630.44 -274.92C1630.66 -274.662 1630.92 -274.891 1631.15 -274.633C1631.38 -274.375 1631.64 -274.604 1631.87 -274.346L1620.01 -173.873L1554.11 -171.177L1630.44 -274.92ZM1553.77 -169.487L1619.93 -172.412L1607.9 -69.0162C1607.15 -68.8159 1606.66 -68.8449 1605.92 -68.6446L1553.77 -169.487ZM1610.12 -57.154C1611.38 -57.8125 1612.41 -58.7288 1613.22 -59.9032L1733.58 -12.6971C1733.55 -12.2101 1733.26 -11.4939 1733.23 -11.0068L1626.6 6.62887L1610.12 -57.154ZM1735.4 -6.47924L1692.26 57.1943L1679.41 75.9841L1656.63 109.582C1655.43 109.267 1654.23 108.951 1653.23 109.381L1627 8.11888L1733.4 -9.77489C1733.8 -8.2849 1734.46 -7.02389 1735.4 -6.47924ZM1552.96 16.198L1604.99 -57.2132C1605.22 -56.9553 1605.22 -56.9554 1605.71 -56.9266C1606.65 -56.3818 1607.63 -56.324 1608.86 -56.4955L1625.34 7.28738L1554.73 19.2356C1554.3 18.2328 1553.65 16.9719 1552.96 16.198ZM1554.5 23.132C1554.79 22.4158 1554.85 21.4419 1555.13 20.7257L1625.74 8.77737L1651.96 110.039C1651.45 110.497 1650.96 110.468 1650.44 110.927L1632.81 95.2191L1553.96 24.0774C1554.21 23.8483 1554.24 23.3611 1554.5 23.132ZM1552.89 25.4808L1631.06 95.8488L1649.61 112.588C1649.35 112.817 1649.33 113.304 1649.07 113.533C1648.75 114.736 1648.69 115.711 1648.86 116.943L1598.85 135.976L1552.12 26.1682C1552.38 25.9391 1552.64 25.71 1552.89 25.4808ZM1450.88 228.144C1451.13 227.915 1451.39 227.686 1451.65 227.457L1501.65 261.943L1536.16 285.737C1535.9 285.966 1535.9 285.966 1535.87 286.453C1535.04 288.114 1535.41 290.091 1536.3 291.61L1505.62 314.232L1450.88 228.144ZM1504.1 315.12L1424.6 373.708C1424.14 373.192 1423.2 372.647 1422.48 372.361C1422.48 372.361 1422.25 372.103 1422 372.332L1446.64 229.604C1447.61 229.661 1448.61 229.232 1449.36 229.032L1504.1 315.12ZM1502 260.253L1452.68 226.54C1452.94 226.311 1452.94 226.311 1452.97 225.824C1453.26 225.108 1453.32 224.134 1453.37 223.16L1545.5 206.865L1541 282.358C1539.28 282.501 1538.02 283.159 1536.73 284.304L1502 260.253ZM1544.65 159.649C1545.34 160.422 1546.05 160.709 1547 161.254C1547.49 161.283 1547.72 161.541 1548.2 161.57L1545.59 205.404L1452.97 221.67C1452.74 221.412 1452.77 220.925 1452.54 220.667L1544.65 159.649ZM1450.71 218.603L1478.18 163.777L1543.11 156.869C1543.08 157.356 1543.54 157.872 1543.51 158.359L1451.63 219.635C1451.66 219.148 1450.94 218.861 1450.71 218.603ZM1549.66 161.656C1551.38 161.514 1553.16 160.397 1554.22 158.993L1617.09 190.82C1617.06 191.307 1617.26 192.052 1617.72 192.568L1547.57 205.032L1549.66 161.656ZM1547.22 206.723L1618.6 194.087C1618.83 194.345 1619.06 194.603 1619.29 194.861L1545.1 283.334C1544.87 283.076 1544.38 283.047 1544.15 282.789C1543.67 282.76 1543.44 282.502 1542.95 282.473L1547.22 206.723ZM1546.01 284.366L1595.46 225.708L1620.69 195.921C1620.69 195.921 1620.69 195.921 1620.92 196.179C1621.64 196.466 1622.13 196.495 1622.61 196.524L1628.67 287.549L1547.99 288.148C1547.36 286.4 1546.93 285.397 1546.01 284.366ZM1554.8 157.561C1555.11 156.358 1555.17 155.384 1555 154.152L1597.76 137.866L1618.35 186.007C1617.84 186.466 1617.55 187.182 1617.26 187.898C1617.23 188.385 1616.97 188.614 1616.95 189.101L1554.8 157.561ZM1599.51 137.237L1649.04 118.175C1649.46 119.178 1650.15 119.951 1651.1 120.496L1624.57 184.176C1622.88 183.832 1621.16 183.974 1619.64 184.862L1599.51 137.237ZM1626.23 185.008L1652.5 121.557C1653.93 122.13 1655.65 121.988 1656.91 121.329L1700.83 196.268L1629.12 189.822C1628.75 187.845 1627.89 185.839 1626.23 185.008ZM1549.63 26.9981C1549.89 26.769 1550.11 27.0269 1550.37 26.7978L1597.1 136.605L1554.34 152.891C1553.68 151.63 1552.77 150.598 1551.34 150.025C1550.85 149.996 1550.62 149.738 1550.13 149.709L1549.63 26.9981ZM1547.45 26.6247C1547.68 26.8827 1547.94 26.6536 1548.17 26.9115L1548.44 149.365C1546.24 149.478 1544.43 151.082 1543.57 153.23C1543.28 153.947 1542.99 154.663 1543.19 155.408L1479.27 161.886L1547.45 26.6247ZM1350.24 174.041L1544.35 29.374L1477.03 162.487L1350.64 175.531C1350.67 175.044 1350.47 174.299 1350.24 174.041ZM1351.04 177.021L1476.46 163.92L1449.05 217.772C1446.42 216.883 1443.18 217.913 1442.06 220.29L1350.69 178.711C1350.98 177.995 1351.01 177.508 1351.04 177.021ZM1347.79 182.206C1348.8 181.776 1349.57 181.089 1350.12 180.144L1441.48 221.723C1440.56 224.845 1442.08 228.112 1444.94 229.259C1444.94 229.259 1445.17 229.517 1445.43 229.288L1420.79 372.016C1420.31 371.987 1419.82 371.958 1419.07 372.159L1347.79 182.206ZM1418.15 383.59C1419.09 384.135 1420.33 383.963 1421.3 384.021L1431.7 418.606L1356.85 436.168C1356.62 435.911 1356.42 435.166 1356.19 434.908L1416.26 382.5C1416.72 383.016 1417.43 383.303 1418.15 383.59ZM1336.12 419.056C1336.69 417.624 1336.52 416.392 1336.35 415.16L1415.11 381.211L1415.34 381.469L1355.27 433.876C1354.82 433.36 1354.1 433.073 1353.38 432.786C1351.24 431.926 1349.26 432.298 1347.48 433.414L1335.29 420.717C1335.57 420.001 1336.09 419.543 1336.12 419.056ZM1331.01 422.664C1332.25 422.493 1333.25 422.063 1334.25 421.634L1346.45 434.331C1345.93 434.789 1345.9 435.276 1345.62 435.992C1345.04 437.424 1345.18 439.144 1345.58 440.634L1329.65 449.71L1331.01 422.664ZM1348.82 443.758C1349.05 444.016 1349.05 444.016 1348.82 443.758L1321.48 590.725L1329.3 451.4L1346.24 441.894C1346.93 442.668 1347.62 443.442 1348.82 443.758ZM1332.09 543.943L1350.74 444.36C1351.71 444.418 1352.95 444.246 1353.95 443.817L1420.78 536.242L1324.89 599.236C1324.2 598.462 1323.25 597.917 1322.54 597.63C1322.54 597.63 1322.31 597.372 1322.05 597.601L1332.09 543.943ZM1275.27 480.459L1327.15 421.946C1327.38 422.204 1327.86 422.233 1328.32 422.749C1328.81 422.778 1329.04 423.036 1329.52 423.064L1328.1 451.084L1275.73 480.975C1275.27 480.459 1275.27 480.459 1275.27 480.459ZM1273.74 489.655C1275 488.997 1275.81 487.823 1276.38 486.39C1276.96 484.958 1276.81 483.239 1276.41 481.749L1327.78 452.287L1319.9 596.741C1319.42 596.712 1319.16 596.941 1318.67 596.912L1273.74 489.655ZM1317.15 597.8C1315.89 598.458 1315.09 599.633 1314.51 601.065C1313.94 602.497 1313.85 603.959 1314.51 605.219L1299.15 612.863L1273.31 492.807L1317.15 597.8ZM1319.08 696.646C1318.85 696.388 1318.59 696.617 1318.36 696.359L1320.64 609.004C1321.38 608.803 1322.13 608.603 1323.13 608.174L1373.02 673.202L1321.86 699.254C1321.43 698.251 1320.51 697.219 1319.08 696.646ZM1317.97 608.602C1318.46 608.63 1318.69 608.888 1319.18 608.917L1316.67 696.014L1299.09 613.837L1314.94 606.222C1315.86 607.254 1316.77 608.286 1317.97 608.602ZM1270.76 490.456L1271.25 490.485L1297.66 613.264L1257.64 632.645C1257.21 631.642 1256.04 630.839 1254.61 630.265C1254.38 630.007 1254.12 630.237 1253.89 629.979L1270.76 490.456ZM1256.98 639.692C1257.49 639.234 1257.52 638.747 1257.81 638.031C1258.38 636.599 1258.47 635.137 1257.81 633.877L1297.57 614.725L1315.18 696.415C1314.44 696.615 1313.69 696.815 1313.18 697.273L1256.98 639.692ZM1314.49 708.104C1315.2 708.391 1315.92 708.677 1316.66 708.477L1323.84 764.377L1307.5 771.963L1299.6 760.987C1301.67 759.154 1302.1 756.003 1300.53 753.71C1299.21 751.189 1296.57 750.299 1294.11 750.642L1315.23 707.904L1314.49 708.104ZM1305.98 772.851L1278.58 785.647C1278.35 785.389 1278.12 785.131 1277.89 784.873L1292.44 762.274C1294.1 763.105 1296.31 762.991 1297.83 762.104L1305.98 772.851ZM1290.15 759.694C1290.61 760.21 1290.81 760.955 1291.52 761.242L1279.93 779.373L1290.15 759.694ZM1279.61 788.885C1279.64 788.398 1279.44 787.653 1279.47 787.166L1306.87 774.37L1324.73 798.644C1324.21 799.102 1324.18 799.589 1323.9 800.305L1294.28 792.931L1279.61 788.885ZM1326.02 797.498L1308.62 773.74L1324.21 766.354L1328.03 796.64C1327.05 796.582 1326.54 797.04 1326.02 797.498ZM1187.23 764.353L1289.03 757.918L1276.52 783.326L1276.29 783.068C1273.43 781.921 1270.42 783.209 1268.81 785.558L1187.23 764.353ZM1067.58 799.546L1092.97 791.763L1175.39 766.096C1175.62 766.354 1175.59 766.841 1175.82 767.099C1176.94 768.875 1178.34 769.936 1180.52 770.309L1178.41 826.149L1067.75 800.778C1067.52 800.52 1067.55 800.033 1067.58 799.546ZM1067.63 802.726L1178.32 827.61L1175.14 909.779C1174.39 909.979 1173.64 910.179 1172.64 910.609C1172.38 910.838 1172.13 911.067 1171.87 911.296L1066.77 804.875C1067.09 803.672 1067.6 803.213 1067.63 802.726ZM1129.06 952.995L1051.16 1017.54C1050.47 1016.77 1049.27 1016.45 1048.32 1015.91L1056.06 902.483L1169.66 915.564C1169.6 916.538 1170.03 917.541 1170.46 918.544L1170.69 918.802L1129.06 952.995ZM1166.73 923.7L1071.95 1025.37L1052.85 1022.04C1052.9 1021.07 1052.73 1019.84 1052.3 1018.83L1052.07 1018.57L1166.73 923.7ZM1178.39 920.724C1179.65 920.066 1180.46 918.892 1181.03 917.459L1197.65 921.62L1140.86 1029.7L1174.47 920.981C1175.9 921.554 1177.13 921.383 1178.39 920.724ZM1181.61 916.027C1181.92 914.824 1181.75 913.592 1180.83 912.56C1180.61 912.302 1180.15 911.786 1179.92 911.528L1237.33 846.256L1198.45 920.446L1181.61 916.027ZM1062.47 807.309C1063.22 807.108 1063.96 806.908 1064.48 806.45C1064.99 805.992 1065.74 805.791 1065.77 805.304L1170.64 911.467C1170.12 911.926 1169.57 912.871 1169.52 913.845L1056.15 901.022L1062.47 807.309ZM1015.76 893.987C1015.33 892.984 1014.87 892.468 1013.92 891.924L1059.55 807.136C1060.04 807.164 1060.26 807.422 1060.75 807.451L1054.2 900.907L1016.1 896.451C1016.39 895.735 1016.21 894.503 1015.76 893.987ZM1016.24 898.17L1054.34 902.626L1046.6 1016.05L1046.12 1016.02L1034.77 976.738L1013.06 902.381C1013.31 902.152 1013.31 902.152 1013.57 901.922C1014.83 901.264 1015.89 899.861 1016.24 898.17ZM958.468 1018.65L972.648 985.767L1041.24 1019.89C1041.21 1020.38 1040.96 1020.6 1040.93 1021.09L961.387 1022.98C961.187 1022.23 960.987 1021.49 960.529 1020.97C960.1 1019.97 959.413 1019.2 958.468 1018.65ZM973.223 984.335L1008.41 902.35C1009.13 902.637 1010.1 902.695 1011.08 902.752L1033.02 977.367L1044.4 1016.16L1044.14 1016.39C1043.14 1016.82 1042.36 1017.51 1042.08 1018.23L973.223 984.335ZM866.912 926.963L974.218 848.76L1006.33 892.207C1005.04 893.353 1004.44 895.272 1004.58 896.991L867.599 927.737C867.37 927.479 867.141 927.221 866.912 926.963ZM867.741 929.456L1004.72 898.71C1004.95 898.968 1004.92 899.455 1005.15 899.713C1005.58 900.716 1006.27 901.49 1007.21 902.035L971.79 983.761L867.366 931.633C867.654 930.917 867.712 929.943 867.741 929.456ZM778.244 913.892C778.502 913.663 778.502 913.663 778.76 913.434C780.021 912.776 780.825 911.601 781.628 910.427L855.793 928.993C855.477 930.196 855.648 931.428 856.564 932.46C856.764 933.205 857.451 933.979 858.167 934.266L808.711 1009.54C807.766 1009 806.305 1008.91 805.073 1009.08L778.244 913.892ZM680.265 1044.7L665.327 1094.4L615.257 1077.51C615.573 1076.31 615.631 1075.33 615.202 1074.33L675.998 1042.49C676.914 1043.53 678.317 1044.59 680.265 1044.7ZM681.727 1044.79C682.472 1044.59 683.217 1044.39 683.733 1043.93C683.991 1043.7 684.249 1043.47 684.765 1043.01L712.249 1106.71C711.246 1107.14 710.443 1108.32 709.898 1109.26L666.788 1094.49L681.727 1044.79ZM685.03 1034.48L738.524 961.15L800.486 1012.23C799.941 1013.18 799.625 1014.38 799.538 1015.84L724.43 1029.48L686.375 1036.51C686.375 1036.51 686.375 1036.51 686.146 1036.25C685.717 1035.25 685.488 1034.99 685.03 1034.48ZM800.196 1017.1C800.425 1017.36 800.396 1017.85 800.625 1018.1C800.854 1018.36 801.083 1018.62 801.312 1018.88L749.866 1074.24L687.233 1038.52C687.262 1038.03 687.033 1037.77 687.062 1037.28L800.196 1017.1ZM748.318 1075.61L718.81 1107.35C717.407 1106.29 715.459 1106.17 713.739 1106.31L686.055 1041.87C686.571 1041.41 686.6 1040.92 686.887 1040.21L748.318 1075.61ZM721.126 1113.59L830.395 1125.44C830.366 1125.93 830.337 1126.41 830.795 1126.93L774.847 1151.23L721.039 1115.05C721.068 1114.57 721.097 1114.08 721.126 1113.59ZM721.471 1111.9C721.529 1110.93 721.329 1110.18 720.9 1109.18C720.671 1108.92 720.442 1108.67 719.984 1108.15L749.75 1076.19L831.057 1122.55C830.799 1122.78 830.769 1123.26 830.769 1123.26L721.471 1111.9ZM750.782 1075.27L802.199 1020.4C803.373 1021.2 805.063 1021.54 806.524 1021.63L818.01 1062.63L834.153 1119.8C833.895 1120.03 833.895 1120.03 833.637 1120.26C832.892 1120.46 832.118 1121.14 831.831 1121.86L750.782 1075.27ZM819.329 1061L808.044 1020.74C808.302 1020.51 808.302 1020.51 808.56 1020.28C810.079 1019.4 811.398 1017.76 811.743 1016.07L849.734 1018.32L836.647 1118.97C836.16 1118.94 836.16 1118.94 835.672 1118.91L819.329 1061ZM811.83 1014.61C811.63 1013.87 811.689 1012.89 811.002 1012.12C810.543 1011.6 810.344 1010.86 809.628 1010.57L859.083 935.297C859.57 935.326 859.799 935.584 860.286 935.613L850.05 1017.12L811.83 1014.61ZM776.754 914.293L803.325 1009.71C803.067 1009.94 803.067 1009.94 802.809 1010.17C802.551 1010.4 802.034 1010.86 801.776 1011.08L739.585 959.747L773.115 913.833C774.06 914.378 775.522 914.464 776.754 914.293ZM647.415 882.44L769.796 908.016C769.738 908.99 769.909 910.222 770.567 911.483C771.025 911.999 771.225 912.744 771.712 912.772L738.182 958.686L646.87 883.385C647.128 883.156 647.157 882.669 647.415 882.44ZM644.777 885.705C645.035 885.476 645.551 885.018 645.809 884.789L737.121 960.09L683.627 1033.41C682.681 1032.87 681.478 1032.55 680.246 1032.73L644.031 885.905C644.031 885.905 644.29 885.676 644.777 885.705ZM641.567 886.248C642.054 886.277 642.054 886.277 642.541 886.306L678.756 1033.13C678.498 1033.36 678.269 1033.1 678.011 1033.33C677.753 1033.56 677.495 1033.78 677.237 1034.01L625.56 982.566L641.567 886.248ZM617.406 967.664C616.748 966.403 615.803 965.858 614.629 965.056L639.129 890.258L624.415 981.276L617.029 973.996C618.348 972.363 618.752 969.699 617.406 967.664ZM675.946 1035.16C674.627 1036.79 674.253 1038.97 674.882 1040.72L614.315 1072.81C613.428 1071.29 612.254 1070.49 610.822 1069.92L624.957 984.485L675.946 1035.16ZM612.729 976.429C613.474 976.229 614.219 976.029 614.965 975.829C615.223 975.599 615.481 975.37 615.739 975.141L623.812 983.195L610.167 1064.5L612.729 976.429ZM426.887 1056.09L606.801 973.39C607.688 974.909 609.349 975.74 611.039 976.085L608.644 1069.54C607.899 1069.74 607.154 1069.94 606.409 1070.14C604.632 1071.26 603.57 1072.66 603.454 1074.61L427.486 1058.33C427.515 1057.84 427.574 1056.87 426.887 1056.09ZM603.109 1076.3C603.338 1076.56 603.08 1076.79 603.309 1077.05L504.58 1105.66L469.015 1116.02C468.786 1115.76 468.786 1115.76 468.557 1115.5C467.012 1112.72 463.173 1111.52 460.393 1113.06L424.761 1063.05C425.793 1062.14 426.596 1060.96 426.912 1059.76L603.109 1076.3ZM606.486 1081.14L562.259 1175.3L469.441 1121.17C469.986 1120.23 469.815 1119 469.873 1118.02L543.497 1096.48L565.134 1090.18L603.938 1078.79C604.625 1079.57 605.541 1080.6 606.486 1081.14ZM450.117 1318.23L377.314 1387.47L377.085 1387.22L419.209 1307.84C420.641 1308.42 422.59 1308.53 424.367 1307.41C426.889 1306.1 428.038 1303.23 427.209 1300.74L450.117 1318.23ZM428.012 1299.57L526.56 1245.28L451.178 1316.82L428.012 1299.57ZM389.098 1124.24L411.677 1122.64L401.128 1201.2C400.641 1201.17 400.154 1201.14 399.896 1201.37L385.34 1129.88C385.598 1129.65 385.598 1129.65 386.085 1129.68C387.862 1128.56 389.211 1126.44 389.098 1124.24ZM334.157 1070.15L414.431 973.974C414.66 974.232 415.147 974.26 415.605 974.776L383.544 1119.02C382.569 1118.96 381.337 1119.13 380.076 1119.79C379.818 1120.02 379.818 1120.02 379.56 1120.25L334.157 1070.15ZM386.695 1119.45L418.858 1063.68C419.087 1063.94 419.345 1063.71 419.574 1063.97L411.764 1121.18L388.698 1122.75C388.469 1122.49 388.498 1122 388.269 1121.74C387.84 1120.74 387.153 1119.97 386.695 1119.45ZM213.01 1150.96C211.72 1152.1 210.888 1153.76 210.772 1155.71L166.871 1162.4L163.437 1084.72C163.924 1084.75 164.44 1084.3 164.927 1084.32L213.01 1150.96ZM177.523 1098.51L219.658 1150.13C217.997 1149.3 216.278 1149.44 214.529 1150.07L177.523 1098.51ZM219.735 1161.13C219.993 1160.9 220.251 1160.67 220.509 1160.44L269.234 1212.2C268.431 1213.38 267.857 1214.81 267.77 1216.27L229.227 1223.28L218.503 1161.3C218.99 1161.33 219.477 1161.36 219.735 1161.13ZM221.8 1159.3C222.861 1157.89 223.206 1156.2 222.835 1154.23L259.732 1199.42L221.8 1159.3ZM166.705 1083.21C167.221 1082.75 167.508 1082.03 168.024 1081.58L289.97 1114.46C289.654 1115.66 290.053 1117.15 290.482 1118.15C291.14 1119.41 292.544 1120.47 293.747 1120.79L274.508 1209.83C273.534 1209.77 272.302 1209.94 271.041 1210.6L270.783 1210.83L166.705 1083.21ZM233.324 970.092L191.93 1033.14L160.403 1008.54C161.235 1006.88 161.58 1005.19 160.952 1003.44L232.437 968.573C232.637 969.318 232.866 969.576 233.324 970.092ZM190.639 1034.28L164.85 1073.32C164.134 1073.04 162.931 1072.72 162.186 1072.92L155.816 1011.69C156.303 1011.72 156.819 1011.26 157.307 1011.29C157.823 1010.83 158.081 1010.6 158.597 1010.15L190.639 1034.28ZM167.885 1075.7C167.427 1075.19 167.227 1074.44 166.511 1074.15L192.042 1035.34L290.602 1112.05C290.344 1112.28 290.315 1112.77 290.315 1112.77L168.369 1079.88C168.456 1078.42 168.543 1076.96 167.885 1075.7ZM342.656 1157.17L277.83 1211.49C277.372 1210.98 276.427 1210.43 275.711 1210.14L294.979 1120.62C295.953 1120.68 297.185 1120.5 298.446 1119.85C298.704 1119.62 299.221 1119.16 299.479 1118.93L342.656 1157.17ZM300.74 1118.27C301.027 1117.56 301.543 1117.1 301.601 1116.12L376.863 1124.49C376.805 1125.46 377.234 1126.47 377.434 1127.21L377.663 1127.47L343.717 1155.76L300.74 1118.27ZM279.975 1216.51L395.306 1208.67C395.506 1209.42 395.477 1209.9 395.935 1210.42C396.822 1211.94 397.996 1212.74 399.428 1213.32L388.944 1282.59L279.372 1218.43C279.659 1217.71 279.946 1216.99 279.975 1216.51ZM400.889 1213.4L401.376 1213.43L419.132 1296.84C418.874 1297.07 418.387 1297.04 418.129 1297.27C417.384 1297.47 416.61 1298.16 416.323 1298.87L390.347 1283.65L400.889 1213.4ZM395.164 1206.95L279.833 1214.79C279.634 1214.04 279.663 1213.56 279.205 1213.04L278.975 1212.78L344.059 1158.23L396.083 1203.83C395.538 1204.78 395.222 1205.98 395.164 1206.95ZM345.349 1157.08L379.066 1128.53C380.469 1129.59 382.131 1130.42 384.108 1130.05L398.664 1201.54C398.664 1201.54 398.664 1201.54 398.406 1201.77C398.148 1202 397.632 1202.46 397.374 1202.69L345.349 1157.08ZM376.95 1123.03L301.688 1114.66C301.746 1113.69 301.317 1112.68 301.117 1111.94C300.888 1111.68 300.43 1111.17 300.201 1110.91L333.096 1071.55L378.299 1120.91C377.783 1121.37 377.496 1122.08 376.95 1123.03ZM299.056 1109.62C297.653 1108.56 296.192 1108.47 294.215 1108.84L240.114 970.983C240.372 970.754 240.372 970.754 240.63 970.525L331.722 1070.01L299.056 1109.62ZM292.953 1109.5C292.437 1109.96 292.179 1110.19 291.663 1110.65L193.104 1033.94L234.498 970.895C235.672 971.698 237.134 971.784 238.624 971.384L292.953 1109.5ZM231.35 966.31L55.3589 1016.01C55.1299 1015.75 55.1299 1015.75 54.9009 1015.49C54.9009 1015.49 54.9009 1015.49 54.6719 1015.23L157.224 934.794L231.237 964.104C231.437 964.849 231.15 965.565 231.35 966.31ZM228.77 968.601L159.806 1002.15C158.003 999.602 154.652 998.426 151.872 999.972C150.094 1001.09 148.746 1003.21 148.63 1005.16L59.7425 1016.27L228.77 968.601ZM154.613 1011.38L160.954 1073.09C160.467 1073.06 159.951 1073.52 159.693 1073.75C158.689 1074.18 158.173 1074.64 157.628 1075.58L128.272 1059.67L152.894 1011.52C153.639 1011.32 154.126 1011.35 154.613 1011.38ZM156.825 1076.76C156.251 1078.19 156.135 1080.14 157.251 1081.91C157.48 1082.17 157.709 1082.43 157.938 1082.69L70.191 1173.05C70.191 1173.05 70.191 1173.05 69.962 1172.79L127.469 1060.84L156.825 1076.76ZM71.5361 1175.08C71.3071 1174.82 71.0781 1174.57 70.849 1174.31L158.625 1083.46C159.57 1084.01 160.515 1084.55 161.718 1084.87L165.639 1162.57L72.1941 1176.34C72.2231 1175.86 71.9941 1175.6 71.5361 1175.08ZM167.271 1163.89L211.401 1157.46C211.371 1157.95 211.6 1158.2 212.059 1158.72C212.258 1159.46 212.946 1160.24 213.662 1160.53L172.405 1229.44C171.689 1229.16 171.202 1229.13 170.486 1228.84L167.271 1163.89ZM174.696 1232.02C174.496 1231.28 173.809 1230.5 173.093 1230.22L214.349 1161.3C215.294 1161.84 216.268 1161.9 217.242 1161.96L227.995 1223.45L175.125 1233.03C174.896 1232.77 174.925 1232.28 174.696 1232.02ZM229.627 1224.77L268.17 1217.76C268.399 1218.02 268.37 1218.51 268.599 1218.77C269.028 1219.77 269.486 1220.28 270.431 1220.83L241.161 1277.26C240.445 1276.97 239.471 1276.91 238.984 1276.89L229.627 1224.77ZM244.167 1280.13C243.738 1279.12 243.28 1278.61 242.335 1278.06L269.94 1224.95L248.228 1289.9L243.561 1286.2C245.138 1284.34 245.283 1281.9 244.167 1280.13ZM272.808 1221.95C274.011 1222.26 275.243 1222.09 276.247 1221.66L369.75 1387.27L369.721 1387.76L369.463 1387.99L250.118 1290.99L272.808 1221.95ZM277.508 1221C278.024 1220.55 278.282 1220.32 278.798 1219.86L389.086 1284.31L373.963 1386.3C372.989 1386.24 372.244 1386.44 371.499 1386.64L277.508 1221ZM390.26 1285.11L416.006 1300.08C415.174 1301.74 415.316 1303.46 416.174 1305.46C416.603 1306.47 417.061 1306.98 418.006 1307.53L406.184 1329.55L375.653 1386.64C375.653 1386.64 375.424 1386.38 375.166 1386.61L390.26 1285.11ZM421.109 1296.47L403.354 1213.06C403.612 1212.83 404.099 1212.86 404.357 1212.63C405.618 1211.97 406.679 1210.57 406.995 1209.36L440.196 1218.17L422.083 1296.53C421.596 1296.5 421.367 1296.24 421.109 1296.47ZM407.341 1207.67C407.399 1206.7 407.228 1205.47 406.57 1204.21C406.112 1203.69 405.912 1202.95 405.196 1202.66L460.728 1123.83C460.957 1124.09 461.215 1123.86 461.444 1124.12L440.054 1216.45L407.341 1207.67ZM458.18 1121.48C458.638 1122 458.838 1122.75 459.554 1123.03L403.534 1201.83C403.305 1201.57 402.818 1201.54 402.589 1201.28L413.167 1122.24L457.58 1119.25C458.009 1120.25 458.209 1121 458.18 1121.48ZM413.483 1121.04L421.006 1064.54C421.98 1064.6 422.725 1064.4 423.729 1063.97L459.59 1114.24C458.3 1115.38 457.725 1116.81 457.638 1118.28L413.483 1121.04ZM417.324 974.634L420.5 1052.54C419.755 1052.74 419.268 1052.71 418.752 1053.17C415.971 1054.71 414.765 1058.55 416.31 1061.33C416.768 1061.85 416.968 1062.59 417.684 1062.88L385.263 1118.88L417.324 974.634ZM243.327 966.286L411.54 969.159C411.74 969.904 411.94 970.649 412.14 971.394C412.369 971.652 412.827 972.168 413.056 972.426L333.012 1068.86L241.92 969.379C242.695 968.692 243.011 967.489 243.327 966.286ZM221.726 889.981L235.395 959.951C235.137 960.18 234.65 960.151 234.392 960.38C233.389 960.81 232.844 961.755 232.07 962.442L159.001 933.677L216.685 888.46C217.83 889.75 219.749 890.352 221.726 889.981ZM12.664 875.402L214.969 884.448C214.911 885.422 215.34 886.425 215.54 887.17L157.082 933.075L12.635 875.889C12.893 875.66 12.8931 875.659 12.664 875.402ZM9.22227 879.841L9.48033 879.612C10.4835 879.183 11.2867 878.008 11.8318 877.063L155.563 933.962L53.7849 1013.71C52.4108 1012.17 50.4916 1011.56 48.5143 1011.94L9.22227 879.841ZM55.9588 1018.24L149.001 1007.13C148.972 1007.62 149.43 1008.14 149.401 1008.62C149.83 1009.63 150.517 1010.4 151.233 1010.69L126.611 1058.84L55.3266 1020.65C55.8717 1019.7 55.9008 1019.22 55.9588 1018.24ZM51.1978 1024.31C51.6849 1024.34 52.201 1023.88 52.688 1023.91C53.6912 1023.48 54.2073 1023.03 54.7524 1022.08L126.037 1060.27L68.5299 1172.22C67.8138 1171.93 67.3268 1171.9 66.8397 1171.87L51.1978 1024.31ZM164.467 1231.42L71.9618 1180.24C72.2489 1179.52 72.536 1178.81 72.336 1178.06L165.294 1164.26L168.022 1229.18C167.277 1229.38 166.79 1229.35 166.274 1229.81C165.758 1230.27 165.241 1230.73 164.467 1231.42ZM174.834 1237.9C175.379 1236.95 175.437 1235.98 175.496 1235L228.366 1225.43L237.236 1277.52C236.978 1277.74 236.49 1277.72 236.232 1277.94C235.716 1278.4 234.971 1278.6 234.684 1279.32L174.834 1237.9ZM238.258 1289.06C239.232 1289.12 240.464 1288.95 241.725 1288.29C241.984 1288.06 242.5 1287.6 242.758 1287.37L247.654 1291.33L218.187 1379.76L238.258 1289.06ZM217.406 1388.76L249.544 1292.42L368.66 1389.16C368.373 1389.88 367.828 1390.82 367.77 1391.8L221.042 1393.37C220.842 1392.63 220.642 1391.88 220.442 1391.14C219.526 1390.11 218.351 1389.3 217.406 1388.76ZM220.467 1394.8L367.196 1393.23C367.396 1393.97 367.367 1394.46 367.825 1394.98L292 1445.23L219.864 1396.72C220.38 1396.27 220.667 1395.55 220.467 1394.8ZM244.79 1470.54L217.513 1399.27C218.029 1398.81 218.774 1398.61 219.061 1397.9L290.739 1445.89L250.806 1472.12C249.174 1470.8 247.026 1469.94 244.79 1470.54ZM346.551 1485.36L252.264 1476.36C252.322 1475.38 252.122 1474.64 251.435 1473.86L291.884 1447.18L346.867 1484.16C346.838 1484.65 346.58 1484.87 346.551 1485.36ZM349.476 1481.38C348.96 1481.84 348.215 1482.04 347.928 1482.75L293.403 1446.29L367.708 1396.93L352.686 1480.84C351.712 1480.78 350.479 1480.95 349.476 1481.38ZM356.753 1482.3C356.066 1481.53 355.35 1481.24 354.634 1480.95L369.915 1396.81C371.776 1398.39 374.44 1398.79 376.704 1397.7C378.969 1396.61 380.088 1394.24 379.746 1391.77L502.544 1361.16L356.753 1482.3ZM379.117 1390.02C378.888 1389.77 378.888 1389.77 378.917 1389.28C378.688 1389.02 378.688 1389.02 378.459 1388.76L451.52 1319.29L503.893 1359.04L379.117 1390.02ZM504.925 1358.13L452.552 1318.37L527.935 1246.83C528.393 1247.35 529.109 1247.63 529.596 1247.66L504.925 1358.13ZM525.902 1244.02L426.351 1298.73C425.664 1297.96 424.748 1296.93 423.545 1296.61L441.399 1218.49L525.59 1241.07C525.532 1242.04 525.474 1243.02 525.902 1244.02ZM525.935 1239.38L441.744 1216.8L462.906 1124.21C463.88 1124.27 464.854 1124.32 465.857 1123.89L527.799 1236.8C527.025 1237.49 526.222 1238.66 525.935 1239.38ZM529.289 1236.4L467.347 1123.49C467.863 1123.04 468.121 1122.81 468.637 1122.35L561.685 1176.73L533.444 1236.4C532.012 1235.83 530.551 1235.74 529.289 1236.4ZM623.828 1216.58L537.166 1239.56C536.937 1239.3 536.937 1239.3 536.966 1238.81C536.537 1237.81 535.85 1237.03 534.905 1236.49L562.888 1177.05L624.289 1212.94C623.973 1214.15 623.657 1215.35 623.828 1216.58ZM626.899 1210.17C626.154 1210.37 625.38 1211.05 625.093 1211.77L563.462 1175.62L607.947 1081.23C608.434 1081.26 609.151 1081.55 609.638 1081.58L612.885 1104.98L628.16 1209.51C627.644 1209.97 627.386 1210.2 626.899 1210.17ZM629.621 1209.59L614.776 1106.07L611.099 1081.66C611.357 1081.43 611.844 1081.46 612.102 1081.23C613.105 1080.8 613.908 1079.63 614.453 1078.68L664.753 1095.84L630.595 1209.65C630.366 1209.39 630.108 1209.62 629.621 1209.59ZM632.286 1210L666.443 1096.18L709.553 1110.95C709.236 1112.16 709.378 1113.88 710.036 1115.14C710.265 1115.39 710.723 1115.91 710.952 1116.17L633.002 1210.28C632.744 1210.51 632.515 1210.26 632.286 1210ZM634.147 1211.57L712.097 1117.46C713.988 1118.55 716.165 1118.92 718.429 1117.83C718.945 1117.37 719.691 1117.17 719.978 1116.46L773.328 1152.12L634.834 1212.35C634.376 1211.83 634.376 1211.83 634.147 1211.57ZM879.226 1224.62L638.53 1211.83L774.76 1152.69L879.8 1223.19C879.513 1223.9 879.255 1224.13 879.226 1224.62ZM880.603 1222.01L776.25 1152.29L831.195 1128.42C832.511 1130.94 835.634 1131.86 838.127 1131.03L881.635 1221.1C881.377 1221.33 881.119 1221.55 880.603 1222.01ZM886.335 1220.15C885.361 1220.1 884.387 1220.04 883.155 1220.21L839.646 1130.14C842.198 1128.34 843.375 1124.99 841.83 1122.21L841.601 1121.95L951.527 1028.51C951.985 1029.02 952.472 1029.05 952.93 1029.57L886.335 1220.15ZM950.153 1026.96L950.382 1027.22L840.456 1120.66C839.769 1119.89 839.053 1119.6 837.85 1119.28L850.937 1018.64L949.095 1024.21C949.524 1025.21 949.724 1025.95 950.153 1026.96ZM949.669 1022.77L851.511 1017.21L861.976 935.957C862.951 936.015 863.696 935.815 864.47 935.128C864.728 934.898 865.244 934.44 865.502 934.211L950.559 1020.14C950.272 1020.86 949.727 1021.8 949.669 1022.77ZM952.595 1018.79C952.336 1019.02 952.078 1019.25 951.82 1019.48L866.763 933.553L867.021 933.324L971.445 985.451L957.265 1018.34C955.833 1017.76 954.114 1017.91 952.595 1018.79ZM1047.78 1045.45C1047.04 1045.65 1046.55 1045.62 1046.04 1046.08C1044.77 1046.74 1043.97 1047.91 1043.43 1048.85L961.529 1024.7C961.529 1024.7 961.529 1024.7 961.558 1024.21L1041.1 1022.32C1041.3 1023.07 1041.5 1023.81 1041.96 1024.33C1043.07 1026.11 1044.96 1027.2 1046.91 1027.31L1047.78 1045.45ZM1049.5 1045.3L1048.11 1027.63C1048.86 1027.43 1049.35 1027.46 1049.86 1027C1051.38 1026.11 1052.18 1024.93 1052.76 1023.5L1070.89 1026.78L1052.37 1046.45C1051.68 1045.68 1050.48 1045.36 1049.5 1045.3ZM1131.57 1037.94L1054.63 1049.52C1054.66 1049.03 1054.43 1048.77 1053.97 1048.26C1053.74 1048 1053.51 1047.74 1053.28 1047.48L1072.1 1027.09L1131.57 1037.94C1131.83 1037.72 1131.83 1037.72 1131.57 1037.94ZM1135.07 1032.53C1133.55 1033.42 1132.75 1034.59 1132.17 1036.03L1073.87 1025.97L1172.06 920.35C1172.29 920.607 1172.78 920.636 1173.01 920.894L1138.76 1032.02C1137.56 1031.7 1136.33 1031.87 1135.07 1032.53ZM1243.19 936.536C1243.42 936.794 1243.42 936.794 1243.65 937.052L1141.63 1033.16L1141.4 1032.91L1199.57 922.223L1242.68 932.84C1242.36 934.043 1242.53 935.275 1243.19 936.536ZM1247.15 927.484C1246.67 927.455 1246.15 927.914 1245.4 928.114C1244.14 928.772 1243.34 929.947 1242.77 931.379L1200.14 920.79L1238.76 846.829C1239.48 847.116 1240.2 847.403 1240.68 847.432L1247.15 927.484ZM1235.99 844.221C1236.22 844.479 1236.22 844.479 1236.44 844.737L1178.77 910.239C1178.06 909.952 1177.11 909.407 1176.4 909.12L1179.56 827.438L1235.27 839.78C1235.16 841.728 1235.33 842.96 1235.99 844.221ZM1237.14 837.202C1236.62 837.66 1236.33 838.377 1235.82 838.835L1179.87 826.235L1182.01 769.909C1182.75 769.709 1183.5 769.508 1184.01 769.05C1184.27 768.821 1184.53 768.592 1184.53 768.592L1237.14 837.202ZM1243.81 835.887C1242.15 835.055 1239.95 835.169 1238.43 836.057L1186.05 767.704C1186.57 767.246 1186.59 766.759 1186.88 766.043L1267.98 787.219C1267.09 789.854 1268.63 792.634 1270.75 793.981L1243.81 835.887ZM1246.39 837.75L1246.59 838.495C1246.13 837.979 1245.93 837.234 1245.22 836.947L1271.93 794.784C1274.82 795.444 1278.09 793.927 1279.24 791.062C1279.49 790.833 1279.26 790.575 1279.26 790.575L1294.19 794.392L1323.06 801.967C1323.04 802.454 1323.04 802.454 1323.01 802.941C1322.98 803.428 1322.98 803.428 1322.95 803.915L1246.39 837.75ZM1408.19 726.849L1333.35 797.444C1332.9 796.928 1332.18 796.641 1331.69 796.613C1330.98 796.326 1330.26 796.039 1329.52 796.239L1325.73 765.467L1408.19 726.849ZM1407.3 725.331L1325.33 763.977L1318.38 708.335C1320.13 707.705 1321.91 706.588 1322.51 704.669L1407.16 723.612C1407.13 724.099 1407.1 724.586 1407.3 725.331ZM1408.63 719.544C1408.11 720.002 1407.82 720.718 1407.54 721.434C1407.28 721.663 1407.51 721.921 1407.25 722.15L1323.09 703.237C1323.37 702.52 1323.17 701.776 1322.97 701.031L1374.39 674.749L1408.63 719.544ZM1463.64 645.331L1416.54 718.057C1416.31 717.799 1415.82 717.77 1415.59 717.512C1413.67 716.91 1411.47 717.024 1410.18 718.169L1375.91 673.862L1477.24 622.187C1477.47 622.445 1477.7 622.703 1478.16 623.219L1463.64 645.331ZM1476.1 620.897L1374.77 672.572L1324.65 607.286C1325.17 606.828 1325.71 605.883 1326 605.167C1326.26 604.938 1326.29 604.451 1326.29 604.451L1475.47 619.149C1475.44 619.636 1475.64 620.381 1476.1 620.897ZM1476.76 613.849C1476.24 614.308 1475.96 615.024 1475.67 615.74C1475.38 616.456 1475.35 616.943 1475.32 617.43L1326.14 602.731C1326.2 601.757 1326 601.012 1325.32 600.238L1421.21 537.244L1476.76 613.849ZM1479.31 612.046C1479.05 612.275 1478.31 612.475 1478.05 612.704L1422.73 536.357L1454.78 515.283C1455.46 516.056 1456.18 516.343 1457.12 516.888C1458.07 517.433 1459.04 517.49 1459.79 517.29L1479.31 612.046ZM1453.92 509.122C1453.09 510.784 1453.46 512.761 1454.12 514.022L1421.81 535.325L1354.98 442.901C1355.24 442.672 1355.24 442.672 1355.5 442.442L1389.57 465.233L1453.95 508.635C1454.18 508.893 1454.18 508.893 1453.92 509.122ZM1457.3 505.657C1456.56 505.857 1455.79 506.544 1455.01 507.232L1390.15 463.801L1356.56 441.039C1356.56 441.039 1356.82 440.81 1356.59 440.552C1357.13 439.607 1357.19 438.633 1356.99 437.888L1431.84 420.325L1457.3 505.657ZM1433.59 419.696L1547.62 392.723C1547.82 393.468 1548.28 393.984 1548.96 394.758L1462.89 506.232C1462.66 505.974 1462.18 505.945 1461.95 505.687C1461 505.143 1459.77 505.314 1458.79 505.256L1433.59 419.696ZM1518.46 525.163L1465.72 512.021C1465.84 510.073 1465.21 508.325 1464.07 507.035L1550.14 395.56C1550.37 395.818 1550.63 395.589 1550.85 395.847L1518.46 525.163ZM1547.22 391.233L1433.19 418.206L1422.79 383.62C1424.05 382.962 1425.34 381.816 1425.91 380.384C1426.17 380.155 1426.2 379.668 1426.2 379.668L1547.22 391.233ZM1547.65 388.081C1547.62 388.568 1547.36 388.798 1547.34 389.285L1426.81 377.748C1426.86 376.774 1426.43 375.771 1426.23 375.026L1505.73 316.438L1549.74 385.761C1548.48 386.42 1547.71 387.107 1547.65 388.081ZM1551.52 384.645C1551.04 384.616 1550.78 384.845 1550.26 385.303L1506.25 315.98L1537.18 293.129C1537.64 293.645 1538.59 294.19 1539.3 294.477C1540.02 294.763 1540.73 295.05 1541.48 294.85L1551.52 384.645ZM1627.91 349.578C1627.33 351.01 1627.25 352.471 1627.9 353.732L1558.71 387.026C1558.05 385.765 1557.11 385.22 1555.68 384.646C1554.96 384.36 1553.99 384.302 1553.5 384.273L1543.46 294.478C1544.69 294.307 1545.72 293.39 1546.49 292.703L1628.42 349.119C1627.94 349.091 1627.68 349.32 1627.91 349.578ZM1629 347.687L1547.07 291.271C1547.33 291.041 1547.33 291.041 1547.36 290.554C1547.39 290.067 1547.67 289.351 1547.7 288.864L1628.61 288.523L1632.29 345.683C1630.8 346.083 1629.54 346.742 1629 347.687ZM1749.3 289.316L1638.25 348.235C1637.56 347.461 1636.65 346.43 1635.45 346.114C1634.73 345.827 1634.24 345.798 1633.76 345.769L1630.08 288.61L1748.9 287.826C1749.1 288.571 1749.07 289.058 1749.3 289.316ZM1749.3 285.161C1749.27 285.648 1748.98 286.364 1748.73 286.594L1629.9 287.378L1624.1 196.123C1625.34 195.952 1626.6 195.293 1627.14 194.348L1749.36 284.187C1749.59 284.445 1749.33 284.674 1749.3 285.161ZM1751.16 282.583C1750.91 282.813 1750.65 283.042 1750.39 283.271L1628.17 193.432C1628.43 193.203 1628.2 192.945 1628.46 192.716C1628.72 192.487 1628.75 191.999 1628.75 191.999L1701.43 198.503L1751.16 282.583ZM1750.45 278.142L1703.41 198.131L1713.87 198.995C1713.98 201.201 1715.55 203.494 1717.7 204.354C1718.91 204.67 1720.11 204.985 1721.6 204.585L1750.45 278.142ZM1715.85 194.469C1715.33 194.927 1714.79 195.872 1714.5 196.588C1714.24 196.818 1714.21 197.305 1714.21 197.305L1702.78 196.383L1661.09 124.998L1715.85 194.469ZM1721.81 192.867C1719.89 192.264 1718.17 192.407 1716.88 193.552L1658.95 119.983C1659.46 119.525 1660.01 118.58 1660.3 117.864C1660.9 115.945 1660.76 114.225 1659.87 112.707L1806.13 12.3719C1806.59 12.8878 1807.05 13.4039 1807.99 13.9485L1721.81 192.867ZM1805.24 10.8531L1658.72 111.417C1658.5 111.159 1658.27 110.901 1658.27 110.901L1715.9 25.6018L1736.81 -5.41871C1736.81 -5.41871 1737.04 -5.1606 1737.3 -5.38979C1740.39 -3.98459 1743.91 -5.73095 1745.06 -8.59549L1804.73 7.15693C1804.42 8.36009 1804.59 9.5923 1805.24 10.8531ZM1805.31 5.72479L1745.64 -10.028C1745.72 -11.4891 1745.58 -13.208 1744.44 -14.4977L1776.81 -45.0842L1807.4 3.40487C1806.4 3.8342 1805.85 4.7796 1805.31 5.72479ZM1867.69 70.2703L1815.19 12.175C1815.7 11.7168 1815.99 11.0006 1816.28 10.2846C1817.68 7.19086 1815.94 3.66604 1812.84 2.26084C1812.13 1.97414 1811.41 1.68728 1810.67 1.88754L1799.8 -61.8071L1867.69 70.2703ZM1870.44 69.2113C1869.95 69.1824 1869.69 69.4116 1869.21 69.3828L1801.55 -62.4367C1802.32 -63.1241 1803.36 -64.0404 1803.67 -65.2436C1803.93 -65.4728 1803.7 -65.7307 1803.96 -65.9597L1870.62 -56.88L1870.44 69.2113ZM2007.16 -35.1096L1875.48 70.7319C1875.02 70.216 1874.31 69.9291 1873.36 69.3843C1872.87 69.3556 1872.65 69.0976 1871.93 68.8107L1872.06 -56.3064L2006.36 -38.0892C2006.31 -37.1153 2006.73 -36.1124 2007.16 -35.1096ZM2006.51 -40.5246C2006.25 -40.2956 2006.48 -40.0379 2006.22 -39.8087L1871.92 -58.0256L1872.07 -109.826C1873.79 -109.969 1875.31 -110.856 1876.37 -112.259L2006.51 -40.5246C2006.77 -40.7537 2006.77 -40.7537 2006.51 -40.5246ZM2007.57 -41.9283L1876.94 -113.692C1877.23 -114.408 1877.26 -114.895 1877.29 -115.382L2002.67 -119.688L2010.9 -44.4194C2009.89 -43.9901 2008.37 -43.1025 2007.57 -41.9283ZM2072.91 9.8404L2017.68 -35.22C2017.94 -35.4491 2017.97 -35.9361 2018.22 -36.1651C2018.54 -37.3684 2018.6 -38.3425 2018.66 -39.3167L2093.69 -63.9555L2078.16 7.95165C2076.21 7.83632 2074.2 8.69491 2072.91 9.8404ZM2243.72 -112.746L2081.94 10.1304C2081.25 9.35653 2080.53 9.06999 2079.59 8.52516L2095.18 -64.3562L2243.49 -113.004C2243.75 -113.233 2243.49 -113.004 2243.72 -112.746ZM2243.55 -118.133C2243.23 -116.93 2243.18 -115.955 2243.35 -114.723L2095.78 -66.2753L2122.9 -193.216C2124.85 -193.1 2126.6 -193.73 2127.91 -195.363L2243.58 -118.62C2243.32 -118.391 2243.32 -118.391 2243.55 -118.133Z" fill="url(#paint0_linear_144_2455)" fill-opacity="0.3"/>
<defs>
<linearGradient id="paint0_linear_144_2455" x1="518.65" y1="1003.74" x2="1798.55" y2="-132.591" gradientUnits="userSpaceOnUse">
<stop stop-color="#202932"/>
<stop offset="0.1801" stop-color="#425667"/>
<stop offset="0.486" stop-color="#2ADACC"/>
<stop offset="0.784108" stop-color="#425667"/>
<stop offset="0.810151" stop-color="#425667"/>
<stop offset="0.9994" stop-color="#425667"/>
</linearGradient>
</defs>
</svg>
