<svg width="87" height="88" viewBox="0 0 87 88" fill="none" xmlns="http://www.w3.org/2000/svg">
<path d="M7.07788 37.5918V25.4546L14.2719 31.3044C16.1324 32.1967 18.0929 32.8418 20.1074 33.224L22.0716 33.5969H44.9139C47.239 33.5969 49.5488 33.9882 51.7546 34.7557L52.5524 35.0334C53.8817 35.4958 55.1353 36.1681 56.2698 37.0267C57.1454 37.6893 57.9487 38.4503 58.6652 39.296L59.3288 40.0791L59.7994 40.7341C61.1399 42.5999 62.136 44.7101 62.7365 46.9565L63.136 49.2312C63.4232 50.8664 63.4589 52.5388 63.2421 54.1858L63.2251 54.3148C62.9034 56.7567 62.0648 59.0933 60.7702 61.1548L60.5026 61.581L60.2843 61.9287C58.9558 64.0441 57.2102 65.8391 55.1639 67.1937L52.0591 69.249V80H45.471V70.1186H42.0327C38.0768 70.1186 34.1327 69.6666 30.2708 68.7708L29.2656 68.5376C26.8195 68.0165 24.5064 66.9618 22.4778 65.4425L22.0716 65.1384L19.194 62.7668L16.5436 60.2372L16.0573 59.7078C14.0171 57.4874 12.2563 55.0046 10.8176 52.3194L10.4856 51.6996L9.48059 49.2629C8.58833 47.0996 7.92911 44.8395 7.51509 42.5241C7.22424 40.8976 7.07788 39.2465 7.07788 37.5918Z" fill="url(#paint0_linear_142_239)"/>
<path d="M68.7563 67.7619L62.7364 70.1186L64.5917 67.3123L66.447 64.5059L68.1246 61.1285C68.4192 60.5355 68.6615 59.9159 68.8489 59.2772C69.4153 57.3456 69.7032 55.3368 69.7032 53.3167V50.8906C69.7032 49.2749 69.5194 47.665 69.1554 46.0945L68.8451 44.7556C68.6603 43.9584 68.4068 43.1802 68.0877 42.4307L66.9893 39.8509C66.6293 39.0054 66.1647 38.2126 65.6075 37.4931L65.4448 37.2832C64.1967 35.6716 62.823 34.1704 61.3379 32.7953C59.7 31.2784 57.9162 29.9423 56.0151 28.8082L55.1638 28.3004L56.2802 25.8969C57.146 24.0326 57.7256 22.0376 57.9979 19.9855L58.2686 17.9447V9.42089C58.2686 8.1628 58.538 6.92063 59.057 5.78523L59.1355 5.61387C59.6126 4.57021 60.2905 3.64032 61.1269 2.88206L61.5825 2.46901C62.3473 1.77559 63.2082 1.20671 64.1358 0.781589C65.2605 0.266142 66.4755 0 67.7037 0H68.4492C69.8674 0 71.2623 0.378365 72.501 1.09918L73.0424 1.41422C74.478 2.24955 75.6871 3.45168 76.5561 4.90798L76.9476 5.56406C77.7065 6.83578 78.1088 8.30408 78.1088 9.80237L84.9999 16.8379H78.1088V25.4545L79.5476 27.668L81.5363 31.6604C82.1777 32.9481 82.6946 34.2994 83.079 35.6944L83.3415 36.6473C83.8388 38.4519 84.0912 40.3205 84.0912 42.1983V45.6003C84.0912 47.4923 83.7872 49.3711 83.1917 51.1579L82.5294 53.1458C81.9581 54.8604 81.1521 56.4797 80.1364 57.9532L78.2789 60.6482C77.5648 61.6843 76.6888 62.5877 75.6877 63.3205L72.2346 65.8479C71.1572 66.6365 69.9884 67.2797 68.7563 67.7619Z" fill="url(#paint1_linear_142_239)"/>
<g opacity="0.5" filter="url(#filter0_d_142_239)">
<path d="M4.48047 37.5918V25.4546L11.6744 31.3044C13.535 32.1967 15.4955 32.8418 17.51 33.224L19.4742 33.5969H42.3165C44.6416 33.5969 46.9514 33.9882 49.1572 34.7557L49.955 35.0334C51.2843 35.4958 52.5379 36.1681 53.6724 37.0267C54.5479 37.6893 55.3512 38.4503 56.0678 39.296L56.7314 40.0791L57.202 40.7341C58.5425 42.5999 59.5386 44.7101 60.1391 46.9565L60.5386 49.2312C60.8258 50.8664 60.8615 52.5388 60.6446 54.1858L60.6277 54.3148C60.306 56.7567 59.4674 59.0933 58.1728 61.1548L57.9052 61.581L57.6869 61.9287C56.3584 64.0441 54.6128 65.8391 52.5665 67.1937L49.4617 69.249V80H42.8736V70.1186H39.4353C35.4794 70.1186 31.5353 69.6666 27.6734 68.7708L26.6682 68.5376C24.2221 68.0165 21.909 66.9618 19.8804 65.4425L19.4742 65.1384L16.5966 62.7668L13.9462 60.2372L13.4599 59.7078C11.4197 57.4874 9.65892 55.0046 8.22018 52.3194L7.88814 51.6996L6.88318 49.2629C5.99092 47.0996 5.3317 44.8395 4.91768 42.5241C4.62683 40.8976 4.48047 39.2465 4.48047 37.5918Z" fill="url(#paint2_linear_142_239)"/>
<path d="M66.1589 67.7619L60.139 70.1186L61.9943 67.3123L63.8496 64.5059L65.5272 61.1285C65.8218 60.5355 66.0641 59.9159 66.2515 59.2772C66.8179 57.3456 67.1058 55.3368 67.1058 53.3167V50.8906C67.1058 49.2749 66.9219 47.665 66.558 46.0945L66.2477 44.7556C66.0629 43.9584 65.8094 43.1802 65.4903 42.4307L64.3919 39.8509C64.0319 39.0054 63.5673 38.2126 63.0101 37.4931L62.8474 37.2832C61.5993 35.6716 60.2256 34.1704 58.7405 32.7953C57.1025 31.2784 55.3187 29.9423 53.4177 28.8082L52.5664 28.3004L53.6828 25.8969C54.5486 24.0326 55.1282 22.0376 55.4005 19.9855L55.6712 17.9447V9.42089C55.6712 8.1628 55.9406 6.92063 56.4596 5.78523L56.5381 5.61387C57.0152 4.57021 57.6931 3.64032 58.5295 2.88206L58.9851 2.46901C59.7499 1.77559 60.6108 1.20671 61.5384 0.781589C62.6631 0.266142 63.8781 0 65.1063 0H65.8518C67.27 0 68.6648 0.378365 69.9036 1.09918L70.445 1.41422C71.8806 2.24955 73.0897 3.45168 73.9587 4.90798L74.3502 5.56406C75.1091 6.83578 75.5114 8.30408 75.5114 9.80237L82.4025 16.8379H75.5114V25.4545L76.9502 27.668L78.9389 31.6604C79.5803 32.9481 80.0972 34.2994 80.4816 35.6944L80.7441 36.6473C81.2414 38.4519 81.4937 40.3205 81.4937 42.1983V45.6003C81.4937 47.4923 81.1898 49.3711 80.5943 51.1579L79.932 53.1458C79.3607 54.8604 78.5547 56.4797 77.539 57.9532L75.6815 60.6482C74.9674 61.6843 74.0914 62.5877 73.0903 63.3205L69.6372 65.8479C68.5597 66.6365 67.391 67.2797 66.1589 67.7619Z" fill="url(#paint3_linear_142_239)"/>
</g>
<defs>
<filter id="filter0_d_142_239" x="0.480469" y="0" width="85.9219" height="88" filterUnits="userSpaceOnUse" color-interpolation-filters="sRGB">
<feFlood flood-opacity="0" result="BackgroundImageFix"/>
<feColorMatrix in="SourceAlpha" type="matrix" values="0 0 0 0 0 0 0 0 0 0 0 0 0 0 0 0 0 0 127 0" result="hardAlpha"/>
<feOffset dy="4"/>
<feGaussianBlur stdDeviation="2"/>
<feComposite in2="hardAlpha" operator="out"/>
<feColorMatrix type="matrix" values="0 0 0 0 0 0 0 0 0 0 0 0 0 0 0 0 0 0 0.25 0"/>
<feBlend mode="normal" in2="BackgroundImageFix" result="effect1_dropShadow_142_239"/>
<feBlend mode="normal" in="SourceGraphic" in2="effect1_dropShadow_142_239" result="shape"/>
</filter>
<linearGradient id="paint0_linear_142_239" x1="7.66251" y1="25.4545" x2="63.4873" y2="25.5909" gradientUnits="userSpaceOnUse">
<stop stop-color="#BFFFFB"/>
<stop offset="1" stop-color="#CE90FE"/>
</linearGradient>
<linearGradient id="paint1_linear_142_239" x1="55.4736" y1="-0.000128687" x2="85.0559" y2="0.0296681" gradientUnits="userSpaceOnUse">
<stop stop-color="#BFFFFB"/>
<stop offset="1" stop-color="#CE90FE"/>
</linearGradient>
<linearGradient id="paint2_linear_142_239" x1="5.0651" y1="25.4545" x2="60.8899" y2="25.5909" gradientUnits="userSpaceOnUse">
<stop stop-color="#BFFFFB"/>
<stop offset="1" stop-color="#CE90FE"/>
</linearGradient>
<linearGradient id="paint3_linear_142_239" x1="52.8762" y1="-0.000128687" x2="82.4585" y2="0.0296681" gradientUnits="userSpaceOnUse">
<stop stop-color="#BFFFFB"/>
<stop offset="1" stop-color="#CE90FE"/>
</linearGradient>
</defs>
</svg>
