<svg width="350" height="458" viewBox="0 0 350 458" fill="none" xmlns="http://www.w3.org/2000/svg">
<path d="M140.253 348.261C141.53 340.825 136.161 337.206 128.263 340.18C120.364 343.153 112.926 351.592 111.649 359.029C110.372 366.466 115.741 370.085 123.639 367.111C131.538 364.138 138.976 355.698 140.253 348.261Z" fill="url(#paint0_linear_160_270)"/>
<path d="M143.797 343.563C144.437 350.365 136.875 359.954 126.922 364.972C116.951 370.013 108.35 368.56 107.709 361.759C107.517 359.717 108.055 357.429 109.192 355.085C111.808 349.625 117.619 343.862 124.584 340.35C132.054 336.584 138.753 336.448 141.905 339.491C142.98 340.501 143.636 341.86 143.797 343.563Z" fill="url(#paint1_linear_160_270)"/>
<path d="M140.774 345.088C140.79 345.257 140.806 345.426 140.804 345.604L140.806 345.63C140.921 351.255 134.756 358.874 126.727 362.923C118.68 366.981 111.722 365.979 110.815 360.754L110.812 360.728C110.779 360.568 110.763 360.399 110.747 360.23C110.214 354.571 116.495 346.58 124.794 342.395C133.076 338.232 140.241 339.429 140.774 345.088Z" fill="url(#paint2_linear_160_270)"/>
<path opacity="0.5" fill-rule="evenodd" clip-rule="evenodd" d="M139.849 338.238C137.508 342.198 131.916 346.815 125.211 349.977C117.894 353.427 111.47 354.104 108.92 352.03C111.371 347.226 116.862 342.14 123.447 339.035C130.509 335.705 136.846 335.573 139.849 338.238Z" fill="url(#paint3_linear_160_270)"/>
<path d="M140.796 345.875L140.798 345.901C140.912 351.466 134.785 359.004 126.806 363.011C118.809 367.026 111.893 366.035 110.992 360.866L110.989 360.84C110.979 359.942 111.116 359.011 111.398 358.033C112.886 352.958 118.272 347.099 124.981 343.731C132.066 340.174 138.324 340.551 140.271 344.292C140.521 344.759 140.703 345.288 140.796 345.875Z" fill="#557086"/>
<path opacity="0.2" fill-rule="evenodd" clip-rule="evenodd" d="M138.79 343.365C135.952 346.706 131.274 350.205 125.856 352.766C119.859 355.6 114.458 356.575 111.295 355.685C112.707 351.151 117.832 345.91 124.221 342.891C130.968 339.703 136.93 340.028 138.79 343.365Z" fill="url(#paint4_linear_160_270)"/>
<path d="M138.086 346.547C137.474 341.646 131.396 340.605 124.527 344.255C117.821 347.823 112.89 354.58 113.492 359.376C113.939 362.921 117.261 364.437 121.67 363.62C122.231 362.747 122.644 361.496 122.844 360.805C123.054 360.219 123.283 359.637 123.514 359.068C124.79 358.752 126.442 357.602 127.296 356.416L127.33 356.371C126.177 356.584 124.676 357.535 123.717 358.609C124.011 357.912 124.326 357.232 124.661 356.569C125.923 356.301 127.599 355.207 128.492 354.029L128.526 353.985C127.424 354.144 125.917 355.029 124.917 356.069C125.253 355.419 125.609 354.773 125.985 354.144C127.277 353.793 128.925 352.59 129.739 351.383L129.772 351.339C128.697 351.581 127.358 352.436 126.446 353.404C126.478 353.347 126.512 353.302 126.544 353.245C126.775 352.881 127.007 352.531 127.239 352.18C128.71 351.108 129.944 349.333 130.052 348.071L130.047 348.019C128.514 349.027 127.173 350.87 126.995 352.194C126.761 352.532 126.547 352.873 126.333 353.214C126.66 352.254 126.5 351.361 125.862 351.012L125.828 351.057C125.052 352.271 125.027 353.614 125.776 354.127C125.415 354.721 125.093 355.322 124.754 355.946C124.908 354.963 124.415 354.156 123.531 354.014L123.517 354.062C123.042 355.248 123.466 356.337 124.435 356.587C124.117 357.228 123.818 357.872 123.538 358.521C123.652 357.518 123.102 356.699 122.164 356.583L122.149 356.632C121.733 357.843 122.251 358.925 123.291 359.112C123.105 359.549 122.939 360.003 122.772 360.444C122.714 360.432 122.658 360.433 122.584 360.457C122.326 360.532 121.955 360.61 121.561 360.645C121.297 360.655 121.017 360.7 120.722 360.781C119.595 361.077 119.721 360.602 119.052 360.131C119.011 360.097 118.509 359.994 118.413 359.974C118.393 359.97 118.092 359.985 117.908 359.845C117.762 359.699 117.654 359.549 117.618 359.375C117.559 359.144 117.398 359.047 117.046 359.129C115.382 359.545 115.96 357.635 115.995 357.411C116.034 357.214 115.781 356.944 115.689 356.771C115.687 356.745 115.666 356.728 115.663 356.688C115.516 356.337 115.736 355.856 115.921 355.612C116.106 355.367 116.753 354.794 116.885 354.59C117.017 354.386 117.111 354.174 117.244 353.983C117.427 353.712 117.974 353.08 118.722 352.386C119.175 351.965 119.22 351.435 119.387 351.2C119.671 350.796 120.141 350.558 120.48 350.14C120.65 349.931 120.898 349.751 121.048 349.537C121.805 348.524 122.867 347.741 123.918 347.045C124.632 346.588 125.459 346.321 126.226 346.029C126.336 345.987 126.447 345.958 126.557 345.917C128.259 345.097 130.325 344.327 131.116 344.476C131.598 344.575 131.866 344.81 131.998 345.003C132.15 345.214 132.337 345.394 132.576 345.52L133.078 345.828C133.4 346.023 133.528 346.383 133.438 346.839C133.387 347.098 133.373 347.352 133.474 347.425C133.637 347.548 134.102 347.656 134.373 347.724C134.508 347.752 134.66 347.757 134.811 347.75C135.169 347.733 135.867 347.71 135.87 347.736C135.873 347.775 135.941 347.892 135.67 348.234C135.398 348.564 134.865 349.135 134.865 349.135C134.865 349.135 134.914 349.247 134.996 349.316C135.078 349.384 135.291 349.44 135.251 349.612C135.21 349.783 134.806 350.111 134.947 350.204C135.07 350.306 135.364 350.213 135.305 350.393C135.246 350.574 134.854 351.033 134.9 351.119C134.946 351.205 135.365 352.036 134.641 352.594C134.093 353.008 132.529 353.881 131.808 354.272C131.502 354.441 131.225 354.718 131.081 354.996C130.988 355.208 130.898 355.459 130.852 355.784C130.774 356.564 129.968 358.658 129.968 358.658C129.968 358.658 129.935 358.716 129.905 358.799C129.828 358.989 129.742 359.279 129.769 359.362C129.793 359.418 129.912 359.481 130.087 359.53C130.225 359.584 130.445 359.514 130.639 359.361C135.385 355.673 138.568 350.472 138.086 346.547Z" fill="#15ADA5"/>
<path d="M138.112 345.39C137.586 340.8 131.504 340.25 124.545 344.189C117.75 348.039 112.681 354.777 113.198 359.268C113.582 362.587 116.889 363.783 121.329 362.697C121.908 361.831 122.345 360.62 122.558 359.953C122.779 359.384 123.02 358.817 123.262 358.263C124.548 357.873 126.227 356.668 127.105 355.487L127.14 355.442C125.979 355.725 124.455 356.731 123.473 357.815C123.781 357.135 124.109 356.469 124.458 355.819C125.729 355.476 127.431 354.322 128.348 353.145L128.383 353.101C127.274 353.33 125.746 354.274 124.724 355.328C125.073 354.69 125.442 354.054 125.831 353.433C127.134 353.009 128.808 351.754 129.647 350.556L129.682 350.511C128.599 350.816 127.239 351.72 126.306 352.7C126.34 352.644 126.374 352.599 126.408 352.543C126.646 352.183 126.885 351.835 127.125 351.487C128.62 350.369 129.89 348.603 130.022 347.402L130.018 347.353C128.461 348.415 127.082 350.253 126.879 351.518C126.638 351.853 126.418 352.191 126.197 352.529C126.541 351.598 126.397 350.765 125.763 350.481L125.728 350.525C124.928 351.729 124.878 353 125.62 353.431C125.248 354.018 124.914 354.61 124.562 355.223C124.734 354.284 124.255 353.556 123.37 353.484L123.355 353.531C122.856 354.686 123.262 355.684 124.231 355.852C123.9 356.48 123.588 357.111 123.296 357.744C123.428 356.787 122.891 356.053 121.951 356.01L121.936 356.057C121.497 357.232 121.997 358.218 123.037 358.321C122.842 358.747 122.668 359.188 122.493 359.616C122.435 359.609 122.378 359.614 122.304 359.642C122.043 359.732 121.669 359.832 121.273 359.893C121.008 359.921 120.727 359.984 120.429 360.081C119.293 360.44 119.427 359.983 118.765 359.585C118.724 359.556 118.222 359.494 118.126 359.482C118.106 359.48 117.804 359.516 117.622 359.396C117.478 359.269 117.371 359.135 117.339 358.973C117.284 358.759 117.124 358.679 116.77 358.781C115.092 359.293 115.706 357.447 115.746 357.232C115.788 357.043 115.539 356.806 115.45 356.649C115.448 356.624 115.428 356.61 115.425 356.573C115.284 356.251 115.513 355.781 115.704 355.537C115.894 355.292 116.553 354.704 116.69 354.502C116.826 354.3 116.924 354.093 117.061 353.903C117.25 353.634 117.809 352.997 118.573 352.288C119.035 351.858 119.09 351.354 119.262 351.119C119.554 350.717 120.029 350.459 120.378 350.04C120.552 349.83 120.804 349.642 120.958 349.43C121.736 348.418 122.816 347.602 123.884 346.869C124.609 346.386 125.443 346.075 126.219 345.744C126.33 345.697 126.441 345.662 126.552 345.615C128.275 344.719 130.363 343.844 131.153 343.929C131.636 343.988 131.901 344.19 132.029 344.364C132.178 344.553 132.363 344.709 132.601 344.811L133.099 345.067C133.418 345.228 133.54 345.559 133.442 345.997C133.386 346.246 133.367 346.487 133.468 346.548C133.629 346.653 134.093 346.722 134.364 346.767C134.499 346.784 134.652 346.778 134.803 346.76C135.163 346.719 135.864 346.647 135.866 346.671C135.869 346.708 135.935 346.813 135.657 347.156C135.378 347.487 134.833 348.065 134.833 348.065C134.833 348.065 134.879 348.168 134.96 348.227C135.042 348.285 135.255 348.324 135.211 348.488C135.167 348.653 134.755 348.992 134.895 349.07C135.017 349.158 135.314 349.048 135.252 349.223C135.189 349.398 134.787 349.86 134.832 349.938C134.877 350.017 135.282 350.772 134.545 351.35C133.988 351.781 132.402 352.718 131.672 353.139C131.362 353.32 131.079 353.602 130.929 353.875C130.832 354.082 130.737 354.326 130.686 354.636C130.593 355.379 129.746 357.416 129.746 357.416C129.746 357.416 129.712 357.472 129.681 357.554C129.6 357.738 129.508 358.019 129.534 358.095C129.557 358.147 129.676 358.198 129.85 358.231C129.987 358.272 130.21 358.19 130.407 358.032C135.236 354.208 138.526 349.077 138.112 345.39Z" fill="url(#paint5_linear_160_270)"/>
<path d="M266.012 346.556C270.063 335.621 260.555 318.336 244.774 307.95C228.993 297.564 212.915 298.01 208.863 308.945C204.811 319.881 214.32 337.165 230.101 347.551C245.882 357.937 261.96 357.492 266.012 346.556Z" fill="url(#paint6_linear_160_270)"/>
<path d="M268.148 338.771C267.74 349.808 253.758 353.104 236.945 346.145C220.102 339.194 206.782 324.575 207.191 313.539C207.313 310.226 208.645 307.606 210.935 305.769C216.219 301.443 226.627 301.295 238.393 306.166C251.01 311.388 261.648 320.891 266.004 329.978C267.496 333.038 268.25 336.007 268.148 338.771Z" fill="url(#paint7_linear_160_270)"/>
<path d="M263.042 336.657C263.032 336.931 263.022 337.206 262.981 337.468L262.979 337.51C261.985 346.035 250.628 348.427 237.067 342.813C223.475 337.186 212.665 325.616 212.322 316.537L212.323 316.495C212.303 316.208 212.313 315.933 212.323 315.659C212.663 306.476 224.281 303.7 238.298 309.503C252.285 315.315 263.381 327.475 263.042 336.657Z" fill="url(#paint8_linear_160_270)"/>
<path opacity="0.5" fill-rule="evenodd" clip-rule="evenodd" d="M266.266 324.666C261.596 327.333 251.563 326.62 240.085 322.292C227.559 317.57 217.106 309.983 213.501 303.545C218.542 299.791 228.521 299.683 239.795 303.934C251.884 308.492 262.071 316.76 266.266 324.666Z" fill="url(#paint9_linear_160_270)"/>
<path d="M262.707 337.651L262.705 337.693C261.715 346.12 250.412 348.483 236.916 342.932C223.389 337.368 212.631 325.931 212.29 316.957L212.291 316.915C212.464 315.567 212.877 314.381 213.531 313.336C216.958 307.945 226.733 307.008 238.081 311.676C250.064 316.604 259.908 326.183 262.208 334.543C262.507 335.598 262.683 336.645 262.707 337.651Z" fill="#557086"/>
<path opacity="0.2" fill-rule="evenodd" clip-rule="evenodd" d="M262.263 330.494C256.945 331.583 248.64 330.441 239.368 326.935C229.104 323.054 220.225 317.25 215.363 311.713C218.672 306.969 228.096 306.162 239.03 310.296C250.576 314.662 260.055 323.122 262.263 330.494Z" fill="url(#paint10_linear_160_270)"/>
<path d="M258.43 334.96C258.485 326.776 249.086 316.396 237.458 311.851C226.105 307.42 216.895 310.315 216.846 318.329C216.813 324.254 221.752 331.336 228.898 336.526C229.968 336.042 230.882 334.78 231.343 334.042C231.797 333.475 232.281 332.941 232.765 332.429C234.85 333.813 237.704 334.501 239.302 333.976L239.365 333.959C237.495 332.6 234.923 331.835 233.181 332.041C233.792 331.43 234.432 330.875 235.101 330.375C237.153 331.81 240.033 332.617 241.691 332.16L241.754 332.143C239.978 330.779 237.409 329.908 235.61 330.003C236.278 329.525 236.975 329.08 237.702 328.69C239.819 330.044 242.676 330.647 244.216 330.033L244.278 330.016C242.527 328.814 240.23 328.141 238.585 328.258C238.648 328.219 238.711 328.202 238.774 328.163C239.215 327.958 239.655 327.773 240.096 327.589C242.645 328.129 244.968 327.278 245.403 325.558L245.406 325.473C242.771 324.747 240.264 325.542 239.706 327.254C239.266 327.417 238.856 327.614 238.446 327.811C239.163 326.856 239.097 325.295 238.16 323.848L238.097 323.865C236.617 324.547 236.296 326.509 237.374 328.36C236.679 328.719 236.044 329.147 235.378 329.583C235.826 328.344 235.216 326.428 233.847 324.931L233.814 324.982C232.815 326.057 233.258 328.293 234.74 330.074C234.103 330.566 233.495 331.091 232.917 331.65C233.307 330.322 232.608 328.304 231.147 326.769L231.115 326.82C230.203 328.019 230.797 330.382 232.403 332.171C232.017 332.551 231.66 332.986 231.305 333.4C231.215 333.298 231.126 333.218 231.004 333.146C230.581 332.884 229.977 332.46 229.346 331.939C228.926 331.571 228.474 331.232 227.991 330.923C226.146 329.726 226.444 329.202 225.484 327.529C225.427 327.419 224.654 326.537 224.506 326.367C224.476 326.333 223.996 325.918 223.735 325.442C223.534 325.013 223.394 324.631 223.374 324.321C223.328 323.891 223.094 323.513 222.52 323.124C219.801 321.326 221.113 319.322 221.216 319.041C221.318 318.802 220.975 318.034 220.866 317.643C220.867 317.6 220.838 317.545 220.841 317.481C220.682 316.746 221.13 316.349 221.474 316.254C221.818 316.159 222.961 316.244 223.213 316.133C223.464 316.022 223.657 315.842 223.908 315.752C224.253 315.615 225.25 315.467 226.579 315.522C227.383 315.553 227.564 314.829 227.878 314.722C228.411 314.533 229.204 314.862 229.828 314.732C230.14 314.667 230.57 314.759 230.852 314.66C232.261 314.251 234.104 314.628 235.913 315.119C237.138 315.476 238.502 316.28 239.777 316.96C239.959 317.057 240.14 317.176 240.323 317.273C243.186 318.526 246.616 320.382 247.835 321.751C248.578 322.6 248.953 323.338 249.121 323.819C249.318 324.354 249.576 324.893 249.928 325.428L250.658 326.616C251.126 327.372 251.254 328.094 251.017 328.644C250.881 328.955 250.806 329.313 250.951 329.567C251.184 329.988 251.896 330.823 252.311 331.319C252.519 331.557 252.758 331.786 252.998 331.993C253.568 332.489 254.677 333.468 254.676 333.51C254.673 333.574 254.756 333.846 254.256 333.962C253.758 334.058 252.795 334.133 252.795 334.133C252.795 334.133 252.848 334.371 252.964 334.592C253.079 334.813 253.405 335.207 253.305 335.404C253.205 335.6 252.497 335.5 252.701 335.844C252.874 336.175 253.359 336.462 253.228 336.646C253.098 336.829 252.381 336.942 252.436 337.138C252.491 337.333 252.98 339.178 251.719 338.957C250.765 338.777 248.108 337.804 246.887 337.34C246.368 337.146 245.872 337.156 245.586 337.361C245.393 337.541 245.198 337.784 245.059 338.201C244.773 339.249 243.06 341.194 243.06 341.194C243.06 341.194 242.996 341.233 242.931 341.314C242.77 341.484 242.573 341.791 242.598 341.953C242.625 342.072 242.801 342.339 243.067 342.666C243.274 342.946 243.637 343.162 243.976 343.216C252.252 344.62 258.374 341.503 258.43 334.96Z" fill="#15ADA5"/>
<path d="M258.807 335.366C258.729 327.973 249.116 317.572 237.36 312.207C225.881 306.974 216.675 308.596 216.756 315.836C216.819 321.19 221.897 328.126 229.161 333.59C230.228 333.268 231.126 332.226 231.577 331.609C232.024 331.145 232.502 330.715 232.979 330.304C235.096 331.781 237.975 332.711 239.572 332.409L239.635 332.4C237.735 330.97 235.138 330 233.391 329.998C233.995 329.512 234.629 329.079 235.293 328.7C237.378 330.219 240.285 331.259 241.943 331.025L242.006 331.017C240.199 329.592 237.604 328.526 235.798 328.418C236.461 328.058 237.155 327.731 237.879 327.457C240.028 328.91 242.908 329.764 244.445 329.375L244.508 329.366C242.729 328.09 240.41 327.234 238.759 327.162C238.822 327.134 238.884 327.125 238.947 327.097C239.387 326.958 239.826 326.839 240.266 326.72C242.836 327.484 245.156 326.966 245.565 325.458L245.567 325.381C242.907 324.44 240.402 324.888 239.868 326.375C239.429 326.475 239.021 326.609 238.612 326.743C239.317 325.957 239.225 324.539 238.26 323.129L238.197 323.138C236.721 323.594 236.431 325.333 237.543 327.123C236.852 327.373 236.22 327.691 235.558 328.013C235.988 326.941 235.344 325.143 233.945 323.642L233.912 323.685C232.926 324.549 233.408 326.618 234.926 328.389C234.293 328.764 233.691 329.173 233.12 329.617C233.49 328.458 232.754 326.558 231.262 325.012L231.23 325.055C230.334 326.04 230.969 328.24 232.611 330.032C232.23 330.334 231.879 330.688 231.528 331.024C231.437 330.922 231.345 330.84 231.222 330.762C230.792 330.479 230.179 330.031 229.536 329.492C229.109 329.113 228.649 328.758 228.158 328.427C226.285 327.145 226.576 326.703 225.585 325.087C225.525 324.981 224.735 324.1 224.583 323.931C224.552 323.897 224.063 323.47 223.793 323.012C223.584 322.602 223.437 322.241 223.412 321.959C223.359 321.565 223.118 321.199 222.535 320.785C219.773 318.865 221.059 317.195 221.158 316.952C221.257 316.747 220.9 316.015 220.783 315.65C220.784 315.612 220.754 315.559 220.756 315.501C220.584 314.819 221.028 314.509 221.372 314.46C221.716 314.412 222.866 314.612 223.117 314.539C223.368 314.465 223.558 314.324 223.809 314.27C224.154 314.183 225.153 314.157 226.489 314.35C227.297 314.465 227.468 313.83 227.781 313.767C228.314 313.654 229.116 314.037 229.741 313.987C230.053 313.962 230.487 314.092 230.769 314.033C232.177 313.815 234.036 314.355 235.861 314.994C237.097 315.45 238.48 316.324 239.773 317.077C239.957 317.184 240.141 317.311 240.326 317.418C243.224 318.861 246.7 320.909 247.947 322.279C248.707 323.126 249.096 323.835 249.272 324.287C249.479 324.792 249.747 325.307 250.109 325.829L250.862 326.982C251.344 327.716 251.485 328.383 251.255 328.854C251.124 329.121 251.055 329.436 251.205 329.682C251.445 330.087 252.174 330.919 252.599 331.413C252.812 331.65 253.056 331.883 253.301 332.096C253.881 332.606 255.012 333.611 255.011 333.649C255.01 333.706 255.097 333.961 254.597 334.013C254.097 334.045 253.131 334.009 253.131 334.009C253.131 334.009 253.189 334.23 253.308 334.442C253.428 334.654 253.762 335.046 253.665 335.213C253.567 335.379 252.854 335.212 253.065 335.545C253.244 335.863 253.736 336.176 253.608 336.327C253.479 336.479 252.762 336.504 252.82 336.687C252.878 336.869 253.399 338.59 252.129 338.253C251.168 337.988 248.482 336.821 247.247 336.27C246.723 336.038 246.225 335.994 245.941 336.149C245.75 336.29 245.558 336.489 245.425 336.851C245.155 337.767 243.465 339.341 243.465 339.341C243.465 339.341 243.402 339.369 243.338 339.435C243.179 339.572 242.986 339.828 243.014 339.977C243.042 340.087 243.224 340.348 243.497 340.672C243.709 340.948 244.077 341.182 244.418 341.267C252.757 343.432 258.856 341.294 258.807 335.366Z" fill="url(#paint11_linear_160_270)"/>
<path d="M124.44 74.1556C118.445 59.5108 102.559 54.6483 88.9572 63.2947C75.3558 71.9412 69.1899 90.8224 75.1851 105.467C81.1804 120.112 97.0666 124.974 110.668 116.328C124.269 107.682 130.435 88.8003 124.44 74.1556Z" fill="url(#paint12_linear_160_270)"/>
<path d="M120.102 66.9952C128.39 78.77 125.604 97.9393 113.898 109.792C102.187 121.688 85.9474 121.743 77.6598 109.968C75.1719 106.433 73.6734 102.244 73.1375 97.7738C71.8341 87.3717 75.6718 75.466 83.8639 67.1715C92.6487 58.2769 103.956 56.0052 112.561 60.4021C115.469 61.8542 118.026 64.0459 120.102 66.9952Z" fill="url(#paint13_linear_160_270)"/>
<path d="M116.546 70.5949C116.752 70.8876 116.958 71.1803 117.143 71.4944L117.175 71.5394C123.317 81.3996 120.836 96.6754 111.394 106.235C101.931 115.816 88.9804 116.166 81.9065 107.249L81.8748 107.204C81.6476 106.932 81.4416 106.64 81.2356 106.347C74.3422 96.553 76.6287 80.5879 86.3878 70.7068C96.1417 60.8696 109.653 60.801 116.546 70.5949Z" fill="url(#paint14_linear_160_270)"/>
<path opacity="0.5" fill-rule="evenodd" clip-rule="evenodd" d="M111.739 60.092C112.243 68.6211 107.73 79.4582 99.5164 87.7762C90.5527 96.8543 79.9063 100.192 72.9154 96.904C71.6111 86.679 75.3904 74.9517 83.4578 66.7815C92.1088 58.0201 103.244 55.7822 111.739 60.092Z" fill="url(#paint15_linear_160_270)"/>
<path d="M117.142 71.5897L117.173 71.6346C123.307 81.481 120.829 96.7354 111.401 106.282C101.953 115.849 89.0207 116.198 81.9574 107.294L81.9257 107.249C80.9501 105.657 80.1911 103.961 79.6328 102.139C76.773 92.6744 79.7711 80.6283 87.6979 72.6018C96.0686 64.1258 107.216 62.8878 114.551 68.9376C115.48 69.6914 116.356 70.5758 117.142 71.5897Z" fill="#557086"/>
<path opacity="0.2" fill-rule="evenodd" clip-rule="evenodd" d="M113.927 68.7325C112.806 76.1744 108.596 84.504 101.964 91.22C94.6238 98.6542 86.1559 102.253 79.4782 101.493C76.6569 92.1542 79.6147 80.268 87.4348 72.3481C95.6928 63.9847 106.691 62.7631 113.927 68.7325Z" fill="url(#paint16_linear_160_270)"/>
<path d="M113.436 74.0245C107.239 65.6334 95.7856 65.6522 87.919 74.1183C80.2432 82.3913 78.9466 95.7061 85.0163 103.917C89.5052 109.985 96.7605 111.631 103.416 108.868C103.454 107.17 102.842 104.857 102.457 103.587C102.198 102.498 101.977 101.41 101.771 100.345C103.614 99.4057 105.219 96.8924 105.428 94.559L105.438 94.4711C103.696 95.1927 102.139 97.3101 101.634 99.4804C101.402 98.1714 101.223 96.8861 101.097 95.6244C102.966 94.7741 104.673 92.352 104.955 90.0208L104.966 89.9328C103.255 90.545 101.618 92.5498 101.008 94.6728C100.898 93.4336 100.825 92.1956 100.805 90.9811C102.637 89.9752 104.179 87.3718 104.297 85.0137L104.308 84.9257C102.73 85.6742 101.347 87.576 100.811 89.5467C100.806 89.4362 100.816 89.3482 100.811 89.2377C100.822 88.5318 100.849 87.8484 100.876 87.165C102.254 84.8437 102.49 81.3634 101.348 79.1231L101.285 79.0329C99.7324 81.2609 99.3855 84.8924 100.474 87.2636C100.431 87.9245 100.425 88.5864 100.42 89.2484C99.9657 87.4695 98.7549 85.9554 97.2996 85.5377L97.289 85.6257C97.2448 87.9859 98.6138 90.3433 100.429 91.0143C100.438 92.1622 100.522 93.3123 100.601 94.5064C99.8293 92.7403 98.1418 91.4772 96.4852 91.495L96.5116 91.5841C96.9491 93.8039 98.8161 95.5799 100.732 95.7241C100.863 96.9418 101.032 98.1606 101.237 99.3805C100.376 97.5897 98.5774 96.3233 96.8571 96.4055L96.8835 96.4946C97.4481 98.7402 99.4686 100.477 101.438 100.49C101.58 101.311 101.775 102.155 101.954 102.977C101.843 102.974 101.748 102.993 101.647 103.056C101.287 103.266 100.736 103.515 100.101 103.695C99.6618 103.793 99.233 103.957 98.8147 104.187C97.2049 105.045 96.9198 104.176 95.2848 103.555C95.179 103.507 94.2157 103.479 94.0305 103.474C93.9934 103.473 93.4958 103.591 93.0355 103.401C92.6334 103.19 92.2895 102.96 92.0463 102.666C91.7025 102.28 91.3268 102.159 90.8132 102.409C88.4146 103.641 87.3905 100.124 87.2162 99.7216C87.0735 99.3643 86.3593 98.9682 86.0208 98.6935C85.9891 98.6484 85.9362 98.6248 85.8886 98.5572C85.2698 97.9874 85.1382 97.0787 85.1968 96.5948C85.2554 96.111 85.7538 94.9117 85.7647 94.5147C85.7756 94.1178 85.7124 93.7187 85.7392 93.3442C85.7661 92.8153 86.0317 91.543 86.578 90.1023C86.9068 89.2291 86.4259 88.2881 86.4633 87.8257C86.5222 87.0329 87.0731 86.4751 87.2113 85.6405C87.2805 85.2232 87.5137 84.8327 87.5458 84.4143C87.7696 82.4124 88.7554 80.7197 89.8152 79.1837C90.5517 78.1678 91.6797 77.4504 92.6806 76.7071C92.8236 76.601 92.9824 76.5173 93.1254 76.4111C95.1647 74.4623 97.8762 72.4889 99.3794 72.5107C100.306 72.5377 101.009 72.8672 101.438 73.1667C101.919 73.4897 102.427 73.7473 102.967 73.8955L104.147 74.2831C104.898 74.5257 105.496 75.117 105.823 75.9431C106.008 76.412 106.251 76.8605 106.5 76.9561C106.908 77.1225 107.813 77.1709 108.347 77.2086C108.606 77.2162 108.871 77.1798 109.12 77.1208C109.713 76.9836 110.877 76.7307 110.909 76.7758C110.957 76.8434 111.195 77.0269 111.094 77.7081C110.977 78.3668 110.669 79.5276 110.669 79.5276C110.669 79.5276 110.87 79.71 111.081 79.8045C111.293 79.8989 111.717 79.9334 111.827 80.2456C111.938 80.5578 111.594 81.254 111.932 81.3742C112.25 81.5159 112.652 81.2628 112.742 81.5965C112.832 81.9302 112.646 82.8517 112.815 82.9891C112.984 83.1264 114.571 84.4529 113.924 85.6479C113.426 86.5382 111.678 88.5397 110.862 89.4429C110.518 89.8301 110.337 90.3986 110.385 90.9297C110.448 91.3288 110.559 91.7955 110.823 92.3771C111.51 93.7655 112.338 97.6741 112.338 97.6741C112.338 97.6741 112.343 97.7846 112.38 97.9401C112.448 98.2953 112.607 98.8296 112.739 98.9659C112.84 99.0571 113.109 99.1312 113.459 99.1634C113.75 99.2161 114.052 99.0263 114.221 98.7001C118.43 90.8114 118.385 80.746 113.436 74.0245Z" fill="#15ADA5"/>
<path d="M112.842 73.1926C106.646 64.8016 95.192 64.8204 87.3254 73.2866C79.6495 81.5597 78.3527 94.8745 84.4225 103.085C88.9113 109.153 96.1665 110.799 102.822 108.036C102.86 106.338 102.248 104.025 101.863 102.756C101.604 101.667 101.383 100.579 101.177 99.5132C103.02 98.5738 104.626 96.0605 104.834 93.7271L104.845 93.6392C103.103 94.3608 101.545 96.4782 101.04 98.6485C100.808 97.3396 100.63 96.0543 100.504 94.7926C102.373 93.9422 104.079 91.5201 104.361 89.1889L104.372 89.1009C102.662 89.7131 101.025 91.7179 100.414 93.8409C100.304 92.6018 100.231 91.3637 100.211 90.1492C102.043 89.1433 103.585 86.5399 103.704 84.1818L103.714 84.0938C102.136 84.8423 100.753 86.7442 100.217 88.7149C100.212 88.6043 100.223 88.5164 100.217 88.4059C100.229 87.6999 100.256 87.0165 100.283 86.3332C101.661 84.0118 101.896 80.5316 100.755 78.2912L100.691 78.2011C99.1387 80.429 98.7918 84.0605 99.8803 86.4318C99.8374 87.0926 99.8316 87.7546 99.8258 88.4165C99.372 86.6376 98.1611 85.1236 96.7059 84.7059L96.6953 84.7939C96.6511 87.1541 98.02 89.5115 99.835 90.1824C99.8446 91.3304 99.9284 92.4805 100.007 93.6746C99.2355 91.9085 97.5481 90.6454 95.8914 90.6632L95.9178 90.7523C96.3553 92.9721 98.2223 94.7481 100.138 94.8923C100.27 96.11 100.438 97.3288 100.643 98.5486C99.7821 96.7579 97.9835 95.4915 96.2633 95.5737L96.2897 95.6628C96.8542 97.9084 98.8747 99.6447 100.844 99.658C100.986 100.479 101.181 101.323 101.36 102.145C101.249 102.142 101.154 102.161 101.053 102.224C100.693 102.434 100.143 102.683 99.5073 102.863C99.068 102.961 98.6391 103.125 98.2208 103.355C96.6111 104.213 96.3259 103.344 94.6909 102.723C94.5851 102.676 93.6218 102.647 93.4366 102.642C93.3995 102.641 92.9019 102.759 92.4416 102.569C92.0395 102.359 91.6956 102.128 91.4524 101.834C91.1087 101.449 90.733 101.327 90.2194 101.577C87.8207 102.809 86.7967 99.2922 86.6223 98.8899C86.4797 98.5326 85.7655 98.1365 85.427 97.8618C85.3952 97.8167 85.3423 97.7931 85.2947 97.7255C84.6759 97.1557 84.5443 96.247 84.6029 95.7631C84.6615 95.2793 85.16 94.08 85.1709 93.683C85.1818 93.2861 85.1186 92.887 85.1454 92.5126C85.1723 91.9836 85.4379 90.7113 85.9842 89.2706C86.3131 88.3974 85.8322 87.4564 85.8696 86.994C85.9284 86.2012 86.4793 85.6434 86.6176 84.8088C86.6868 84.3915 86.92 84.001 86.952 83.5826C87.1759 81.5807 88.1617 79.888 89.2215 78.3519C89.9581 77.3361 91.086 76.6187 92.087 75.8754C92.2299 75.7692 92.3888 75.6856 92.5318 75.5794C94.5711 73.6305 97.2826 71.6571 98.7858 71.6789C99.712 71.7059 100.416 72.0354 100.844 72.3348C101.326 72.6579 101.833 72.9155 102.373 73.0636L103.553 73.4512C104.305 73.6938 104.902 74.2851 105.23 75.1113C105.415 75.5801 105.658 76.0286 105.906 76.1242C106.314 76.2906 107.219 76.339 107.753 76.3767C108.013 76.3843 108.277 76.3479 108.526 76.2889C109.119 76.1517 110.284 75.8988 110.316 75.9439C110.363 76.0115 110.601 76.195 110.5 76.8762C110.383 77.5349 110.075 78.6956 110.075 78.6956C110.075 78.6956 110.276 78.8781 110.488 78.9725C110.699 79.067 111.123 79.1014 111.234 79.4136C111.345 79.7259 111 80.422 111.339 80.5423C111.656 80.684 112.059 80.4309 112.148 80.7645C112.238 81.0982 112.052 82.0197 112.221 82.1571C112.391 82.2945 113.977 83.6209 113.331 84.8159C112.833 85.7062 111.084 87.7077 110.268 88.6109C109.924 88.9981 109.744 89.5667 109.791 90.0977C109.854 90.4969 109.965 90.9636 110.229 91.5451C110.916 92.9335 111.744 96.8421 111.744 96.8421C111.744 96.8421 111.749 96.9526 111.786 97.1081C111.855 97.4633 112.013 97.9976 112.145 98.1339C112.246 98.2251 112.516 98.2992 112.865 98.3314C113.156 98.3841 113.458 98.1942 113.627 97.8681C117.836 89.9794 117.807 79.9365 112.842 73.1926Z" fill="url(#paint17_linear_160_270)"/>
<path d="M272.718 227.561C285.29 173.292 251.489 119.106 197.22 106.533C142.951 93.9603 88.7649 127.762 76.192 182.031C63.6191 236.3 97.4205 290.486 151.69 303.059C205.959 315.632 260.145 281.83 272.718 227.561Z" fill="url(#paint18_linear_160_270)"/>
<path d="M275.421 199.206C275.421 251.853 230.223 294.535 174.556 294.535C118.788 294.635 73.5903 251.853 73.5903 199.206C73.5903 183.402 77.6169 168.503 84.8647 155.417C101.575 124.815 135.499 103.877 174.455 103.877C216.231 103.877 252.067 127.835 267.368 162.061C272.603 173.537 275.421 186.019 275.421 199.206Z" fill="url(#paint19_linear_160_270)"/>
<path d="M258.509 199.206C258.509 200.515 258.509 201.823 258.409 203.132V203.333C256.194 245.31 219.452 278.63 174.556 278.63C129.559 278.63 92.9173 245.31 90.7027 203.333V203.132C90.6021 201.823 90.6021 200.515 90.6021 199.206C90.6021 155.417 128.15 119.782 174.556 119.782C220.861 119.883 258.509 155.417 258.509 199.206Z" fill="url(#paint20_linear_160_270)"/>
<path opacity="0.5" fill-rule="evenodd" clip-rule="evenodd" d="M267.469 162.061C251.967 186.019 217.741 202.628 178.079 202.628C134.794 202.628 98.1523 182.898 84.9653 155.417C101.575 124.815 135.499 103.877 174.455 103.877C216.231 103.877 252.067 127.835 267.469 162.061Z" fill="url(#paint21_linear_160_270)"/>
<path d="M258.308 203.132V203.333C256.093 245.31 219.351 278.63 174.455 278.63C129.458 278.63 92.8167 245.31 90.6021 203.333V203.132C91.0047 196.387 92.2127 189.945 94.2259 183.704C104.796 151.391 136.706 127.835 174.455 127.835C214.318 127.835 247.738 154.109 256.295 189.341C257.402 193.77 258.107 198.401 258.308 203.132Z" fill="#557086"/>
<path opacity="0.2" fill-rule="evenodd" clip-rule="evenodd" d="M256.295 189.341C238.377 206.051 209.989 216.822 177.978 216.822C142.545 216.822 111.54 203.635 94.2261 183.704C104.796 151.391 136.706 127.835 174.455 127.835C214.318 127.835 247.738 154.109 256.295 189.341Z" fill="url(#paint22_linear_160_270)"/>
<g clip-path="url(#clip0_160_270)">
<path d="M34.2549 378.883L13.6387 424.429M339.216 424.429L307.975 378.883" stroke="#425667" stroke-miterlimit="10"/>
<path d="M170.956 394.118C246.717 394.118 308.133 387.794 308.133 379.994C308.133 372.193 246.717 365.87 170.956 365.87C95.1951 365.87 33.7788 372.193 33.7788 379.994C33.7788 387.794 95.1951 394.118 170.956 394.118Z" stroke="#425667" stroke-miterlimit="10"/>
<path d="M13.6294 424.5V435.948C13.6294 443.749 87.0826 449.979 176.507 449.979C265.931 449.979 339.642 443.656 339.642 435.855V424.5" stroke="#425667" stroke-miterlimit="10"/>
<path d="M339.375 424.429C339.375 432.229 266.456 438.553 176.507 438.553C86.5572 438.553 13.6387 432.229 13.6387 424.429" stroke="#425667" stroke-miterlimit="10"/>
<path d="M72.6329 411.892C72.1571 411.892 46.149 410.305 22.6782 404.909L22.9954 403.64C45.5146 408.718 70.2541 410.464 72.4743 410.622L92.7734 401.1H92.932C123.222 403.957 178.727 405.068 179.361 405.068V406.337C178.727 406.337 123.539 405.227 93.0905 402.37L72.6329 411.892Z" fill="#425667"/>
<path d="M160.014 437.918H158.904V429.031L87.8574 425.222L70.0958 435.062L69.4614 433.951L87.5403 423.953H87.6989L160.014 427.761V437.918Z" fill="#425667"/>
<path d="M179.363 394.269L178.095 394.296L179.055 438.088L180.323 438.06L179.363 394.269Z" fill="#425667"/>
<path d="M178.727 420.144V418.875C179.044 418.875 218.691 418.875 255.959 416.494L262.302 406.337H262.619C262.936 406.337 301.314 401.735 321.138 397.609L321.455 398.879C302.424 402.846 266.742 407.131 263.095 407.607L256.752 417.764H256.434C219.484 420.144 180.313 420.144 178.727 420.144Z" fill="#425667"/>
<path d="M301.314 433.951L300.363 433.316L307.658 422.683H307.975C308.134 422.683 323.834 419.192 335.093 417.764L335.252 419.033C324.785 420.462 310.512 423.477 308.451 423.953L301.314 433.951Z" fill="#425667"/>
<path d="M282.971 388.136L281.765 388.531L286.692 403.615L287.898 403.22L282.971 388.136Z" fill="#425667"/>
<path d="M41.9813 384.605L31.9404 406.186L33.0906 406.722L43.1315 385.141L41.9813 384.605Z" fill="#425667"/>
<g filter="url(#filter0_df_160_270)">
<circle cx="193.536" cy="373.254" r="1.63551" fill="#56E2D6"/>
</g>
<path d="M172.065 373.799C185.388 373.799 195.233 373.912 207.498 374.124M236.807 374.855C283.356 376.405 315.109 379.501 315.109 383.067C315.109 388.185 249.695 392.335 169.003 392.335C88.3108 392.335 22.897 388.185 22.897 383.067C22.897 380.562 38.562 378.289 64.0166 376.621M114.541 374.464C106.184 374.677 98.2097 374.938 90.7006 375.241" stroke="white" stroke-opacity="0.2" stroke-width="2" stroke-linecap="round"/>
<path d="M114.376 373.799C106.034 374.02 98.0739 374.29 90.5783 374.605M63.9424 376.036C38.5337 377.766 22.897 380.124 22.897 382.722C22.897 388.031 88.1928 392.335 168.739 392.335C182.039 392.335 194.922 392.217 207.165 391.998" stroke="#2ADACC" stroke-width="2" stroke-linecap="round"/>
</g>
<g opacity="0.5" filter="url(#filter1_d_160_270)">
<path d="M119 194.135V178.204L128.694 185.882C131.201 187.054 133.843 187.9 136.557 188.402L139.204 188.891H169.984C173.117 188.891 176.23 189.405 179.202 190.412L180.277 190.777C182.068 191.384 183.757 192.266 185.286 193.393C186.466 194.263 187.548 195.261 188.514 196.371L189.408 197.399L190.042 198.259C191.849 200.708 193.191 203.477 194 206.426L194.538 209.411C194.925 211.558 194.973 213.753 194.681 215.914L194.658 216.084C194.225 219.289 193.095 222.355 191.35 225.061L190.99 225.62L190.696 226.077C188.906 228.853 186.553 231.209 183.796 232.987L179.612 235.685V249.795H170.735V236.826H166.102C160.771 236.826 155.456 236.233 150.252 235.057L148.898 234.751C145.602 234.067 142.485 232.683 139.751 230.689L139.204 230.289L135.327 227.177L131.755 223.857L131.1 223.162C128.351 220.248 125.978 216.989 124.039 213.465L123.592 212.651L122.238 209.453C121.035 206.614 120.147 203.647 119.589 200.608C119.197 198.473 119 196.306 119 194.135Z" fill="url(#paint23_diamond_160_270)"/>
<path d="M202.112 233.733L194 236.826L196.5 233.143L199 229.459L201.261 225.027C201.658 224.248 201.984 223.435 202.237 222.597C203 220.062 203.388 217.425 203.388 214.774V211.589C203.388 209.469 203.14 207.356 202.65 205.295L202.231 203.537C201.982 202.491 201.641 201.469 201.211 200.486L199.731 197.1C199.246 195.99 198.62 194.95 197.869 194.005L197.65 193.73C195.968 191.614 194.117 189.644 192.115 187.839C189.908 185.848 187.505 184.095 184.943 182.606L183.796 181.94L185.3 178.785C186.467 176.338 187.248 173.72 187.615 171.026L187.98 168.348V157.16C187.98 155.509 188.343 153.879 189.042 152.389L189.148 152.164C189.791 150.794 190.704 149.573 191.831 148.578L192.445 148.036C193.476 147.126 194.636 146.379 195.886 145.821C197.401 145.145 199.038 144.795 200.693 144.795H201.698C203.609 144.795 205.489 145.292 207.158 146.238L207.887 146.652C209.822 147.748 211.451 149.326 212.622 151.237L213.15 152.098C214.172 153.767 214.714 155.695 214.714 157.661L224 166.895H214.714V178.205L216.653 181.11L219.333 186.35C220.197 188.04 220.894 189.813 221.412 191.644L221.765 192.895C222.435 195.263 222.775 197.716 222.775 200.181V204.646C222.775 207.129 222.366 209.595 221.563 211.94L220.671 214.549C219.901 216.8 218.815 218.925 217.447 220.859L214.943 224.396C213.981 225.756 212.801 226.942 211.452 227.904L206.799 231.221C205.347 232.256 203.772 233.1 202.112 233.733Z" fill="url(#paint24_diamond_160_270)"/>
</g>
<defs>
<filter id="filter0_df_160_270" x="185.9" y="365.618" width="15.271" height="15.271" filterUnits="userSpaceOnUse" color-interpolation-filters="sRGB">
<feFlood flood-opacity="0" result="BackgroundImageFix"/>
<feColorMatrix in="SourceAlpha" type="matrix" values="0 0 0 0 0 0 0 0 0 0 0 0 0 0 0 0 0 0 127 0" result="hardAlpha"/>
<feOffset/>
<feGaussianBlur stdDeviation="3"/>
<feComposite in2="hardAlpha" operator="out"/>
<feColorMatrix type="matrix" values="0 0 0 0 0.164706 0 0 0 0 0.854902 0 0 0 0 0.8 0 0 0 1 0"/>
<feBlend mode="normal" in2="BackgroundImageFix" result="effect1_dropShadow_160_270"/>
<feBlend mode="normal" in="SourceGraphic" in2="effect1_dropShadow_160_270" result="shape"/>
<feGaussianBlur stdDeviation="1" result="effect2_foregroundBlur_160_270"/>
</filter>
<filter id="filter1_d_160_270" x="115" y="144.795" width="113" height="113" filterUnits="userSpaceOnUse" color-interpolation-filters="sRGB">
<feFlood flood-opacity="0" result="BackgroundImageFix"/>
<feColorMatrix in="SourceAlpha" type="matrix" values="0 0 0 0 0 0 0 0 0 0 0 0 0 0 0 0 0 0 127 0" result="hardAlpha"/>
<feOffset dy="4"/>
<feGaussianBlur stdDeviation="2"/>
<feComposite in2="hardAlpha" operator="out"/>
<feColorMatrix type="matrix" values="0 0 0 0 0 0 0 0 0 0 0 0 0 0 0 0 0 0 0.25 0"/>
<feBlend mode="normal" in2="BackgroundImageFix" result="effect1_dropShadow_160_270"/>
<feBlend mode="normal" in="SourceGraphic" in2="effect1_dropShadow_160_270" result="shape"/>
</filter>
<linearGradient id="paint0_linear_160_270" x1="132.993" y1="361.259" x2="127.646" y2="356.5" gradientUnits="userSpaceOnUse">
<stop stop-color="#557086"/>
<stop offset="1" stop-color="#425667"/>
</linearGradient>
<linearGradient id="paint1_linear_160_270" x1="111.685" y1="351.24" x2="130.219" y2="366.079" gradientUnits="userSpaceOnUse">
<stop stop-color="#8CA2B5"/>
<stop offset="1" stop-color="#D9D9D9"/>
</linearGradient>
<linearGradient id="paint2_linear_160_270" x1="124.794" y1="342.395" x2="133.439" y2="359.538" gradientUnits="userSpaceOnUse">
<stop stop-color="#425667"/>
<stop offset="1" stop-color="#1A2228"/>
</linearGradient>
<linearGradient id="paint3_linear_160_270" x1="112.176" y1="347.424" x2="135.89" y2="352.757" gradientUnits="userSpaceOnUse">
<stop stop-color="#D9F7F5"/>
<stop offset="1" stop-color="white"/>
</linearGradient>
<linearGradient id="paint4_linear_160_270" x1="115.929" y1="346.059" x2="129.846" y2="355.003" gradientUnits="userSpaceOnUse">
<stop stop-color="#DEFCFF"/>
<stop offset="1" stop-color="white"/>
</linearGradient>
<linearGradient id="paint5_linear_160_270" x1="118.022" y1="348.717" x2="129.313" y2="359.786" gradientUnits="userSpaceOnUse">
<stop stop-color="#2ADACC"/>
<stop offset="1" stop-color="#56E2D6"/>
</linearGradient>
<linearGradient id="paint6_linear_160_270" x1="249.292" y1="355.623" x2="248.931" y2="336.148" gradientUnits="userSpaceOnUse">
<stop stop-color="#557086"/>
<stop offset="1" stop-color="#425667"/>
</linearGradient>
<linearGradient id="paint7_linear_160_270" x1="215.687" y1="303.665" x2="227.212" y2="355.819" gradientUnits="userSpaceOnUse">
<stop stop-color="#8CA2B5"/>
<stop offset="1" stop-color="#D9D9D9"/>
</linearGradient>
<linearGradient id="paint8_linear_160_270" x1="238.298" y1="309.503" x2="226.345" y2="338.374" gradientUnits="userSpaceOnUse">
<stop stop-color="#425667"/>
<stop offset="1" stop-color="#1A2228"/>
</linearGradient>
<linearGradient id="paint9_linear_160_270" x1="219.786" y1="301.155" x2="264.938" y2="324.165" gradientUnits="userSpaceOnUse">
<stop stop-color="#D9F7F5"/>
<stop offset="1" stop-color="white"/>
</linearGradient>
<linearGradient id="paint10_linear_160_270" x1="225.011" y1="303.83" x2="241.126" y2="337.521" gradientUnits="userSpaceOnUse">
<stop stop-color="#DEFCFF"/>
<stop offset="1" stop-color="white"/>
</linearGradient>
<linearGradient id="paint11_linear_160_270" x1="226.202" y1="308.372" x2="223.965" y2="340.774" gradientUnits="userSpaceOnUse">
<stop stop-color="#2ADACC"/>
<stop offset="1" stop-color="#56E2D6"/>
</linearGradient>
<linearGradient id="paint12_linear_160_270" x1="124.029" y1="101.649" x2="106.455" y2="95.7725" gradientUnits="userSpaceOnUse">
<stop stop-color="#557086"/>
<stop offset="1" stop-color="#425667"/>
</linearGradient>
<linearGradient id="paint13_linear_160_270" x1="73.3317" y1="90.2499" x2="122.695" y2="97.9164" gradientUnits="userSpaceOnUse">
<stop stop-color="#8CA2B5"/>
<stop offset="1" stop-color="#D9D9D9"/>
</linearGradient>
<linearGradient id="paint14_linear_160_270" x1="86.3878" y1="70.7068" x2="116.809" y2="100.753" gradientUnits="userSpaceOnUse">
<stop stop-color="#425667"/>
<stop offset="1" stop-color="#1A2228"/>
</linearGradient>
<linearGradient id="paint15_linear_160_270" x1="73.2785" y1="86.8177" x2="114.599" y2="71.0205" gradientUnits="userSpaceOnUse">
<stop stop-color="#D9F7F5"/>
<stop offset="1" stop-color="white"/>
</linearGradient>
<linearGradient id="paint16_linear_160_270" x1="76.4" y1="81.1536" x2="111.493" y2="80.6237" gradientUnits="userSpaceOnUse">
<stop stop-color="#DEFCFF"/>
<stop offset="1" stop-color="white"/>
</linearGradient>
<linearGradient id="paint17_linear_160_270" x1="80.9092" y1="82.7653" x2="116.091" y2="93.2053" gradientUnits="userSpaceOnUse">
<stop stop-color="#2ADACC"/>
<stop offset="1" stop-color="#56E2D6"/>
</linearGradient>
<linearGradient id="paint18_linear_160_270" x1="217.229" y1="299.079" x2="180.03" y2="238.309" gradientUnits="userSpaceOnUse">
<stop stop-color="#557086"/>
<stop offset="1" stop-color="#425667"/>
</linearGradient>
<linearGradient id="paint19_linear_160_270" x1="100.108" y1="136.288" x2="231.225" y2="278.454" gradientUnits="userSpaceOnUse">
<stop stop-color="#8CA2B5"/>
<stop offset="1" stop-color="#D9D9D9"/>
</linearGradient>
<linearGradient id="paint20_linear_160_270" x1="174.556" y1="119.782" x2="174.556" y2="278.63" gradientUnits="userSpaceOnUse">
<stop stop-color="#425667"/>
<stop offset="1" stop-color="#1A2228"/>
</linearGradient>
<linearGradient id="paint21_linear_160_270" x1="106.001" y1="129.659" x2="261.426" y2="167.962" gradientUnits="userSpaceOnUse">
<stop stop-color="#D9F7F5"/>
<stop offset="1" stop-color="white"/>
</linearGradient>
<linearGradient id="paint22_linear_160_270" x1="125.889" y1="121.556" x2="235.644" y2="200.742" gradientUnits="userSpaceOnUse">
<stop stop-color="#DEFCFF"/>
<stop offset="1" stop-color="white"/>
</linearGradient>
<radialGradient id="paint23_diamond_160_270" cx="0" cy="0" r="1" gradientUnits="userSpaceOnUse" gradientTransform="translate(119 178.204) rotate(43.338) scale(104.314 216.634)">
<stop stop-color="#E3F3FD"/>
<stop offset="1" stop-color="white"/>
</radialGradient>
<radialGradient id="paint24_diamond_160_270" cx="0" cy="0" r="1" gradientUnits="userSpaceOnUse" gradientTransform="translate(183.796 144.795) rotate(66.4016) scale(100.429 153.281)">
<stop stop-color="#E3F3FD"/>
<stop offset="1" stop-color="white"/>
</radialGradient>
<clipPath id="clip0_160_270">
<rect width="350" height="92.6791" fill="white" transform="translate(0 365.076)"/>
</clipPath>
</defs>
</svg>
